<svg xmlns="http://www.w3.org/2000/svg" viewBox="0 0 262.56 248.9"><defs><style>.cls-1{fill:#004f58;}</style></defs><g id="Camada_1" data-name="Camada 1"><path d="M45.64,169.21h0l.18,0A.74.74,0,0,0,45.64,169.21Z"/><path d="M44.73,172a1.52,1.52,0,0,1,.11.53l.09.34a1.29,1.29,0,0,0-.12.56l0,.87,0,1.22a2.39,2.39,0,0,0,.13.68.24.24,0,0,1,0,.08l-.23.51.14.38-.14.15.09.47a1.15,1.15,0,0,0,.24.51l-.1.52.12.57a1.2,1.2,0,0,0-.24.69,2.77,2.77,0,0,0,.2.89.76.76,0,0,0,0,.15,3.75,3.75,0,0,0,0,.65,2,2,0,0,0,.07.53l-.16.32L45,183a1.34,1.34,0,0,0,.12.3,1.17,1.17,0,0,0,0,.2,2.68,2.68,0,0,0,0,1l0,.27,0,.09a3.11,3.11,0,0,0-.11.68,2.19,2.19,0,0,0,.17.8v.32l-.1.62.08.29a1.42,1.42,0,0,0-.13.61l.12.58,0,0a5.34,5.34,0,0,0-.14.91,3.46,3.46,0,0,0,.12.73,1.36,1.36,0,0,0,0,.65,1.38,1.38,0,0,0,.12.36v1.2l-.09,1.4a.78.78,0,0,0,.07.17c0,.1,0,.28,0,.7l-.31.34v1.34l.13,0A2.63,2.63,0,0,0,45,197l0,.2.06.16a1.53,1.53,0,0,0-.11.62v.38l.26.27a2.27,2.27,0,0,0,1.44.63l.86,0a1.94,1.94,0,0,0,1.2-.58l.16-.17.35-1.2-.28-.14-.07-.34a2.21,2.21,0,0,1-.12-.42l-.07-.34,0,0a1.15,1.15,0,0,0,0-.45h0l.28-.83-.24-.24a3.11,3.11,0,0,0,0-1l.19-.13v-1.61h-.24a.12.12,0,0,0,0,0,1.17,1.17,0,0,1,.05-.2,1.48,1.48,0,0,0,.11-.54,2.69,2.69,0,0,0,0-.63.93.93,0,0,1,0-.22l.08-.29-.09-.62.07-1a2.49,2.49,0,0,0-.09-.63,1.6,1.6,0,0,1-.08-.53,3.37,3.37,0,0,1,.05-.65l.1-.51-.28-.25.16-.48-.22-.22.07-.34-.14-.6c0-.08,0-.17.05-.3a1.36,1.36,0,0,0,.09-.23l.09-.57-.05-.06.1-.94a1.47,1.47,0,0,1,0-.31l-.08-.37a1,1,0,0,0,0-.24,1.43,1.43,0,0,0,.07-.32l.1-.53.08-.55-.1-.16,0-1s0-.07,0-.11l.08-.62,0,0v.51l.2.25a1.28,1.28,0,0,0,.24.23l.27.29.12.1.17.31a1.56,1.56,0,0,0,.44.39l0,0,.72,1a3,3,0,0,1,.29.41l.09.2a3.8,3.8,0,0,0,.19.43,1.66,1.66,0,0,0,.22.56l.12.14a1.07,1.07,0,0,0,.16.14,1.14,1.14,0,0,0,.08.27l.1.25.21.16a2.38,2.38,0,0,1,.43.34,1.9,1.9,0,0,0,.15.42,1.77,1.77,0,0,0,.62.67,7.43,7.43,0,0,0,.5,1.15c.11.15.24.29.26.25l.24.52.29.13h0a1.23,1.23,0,0,0,.14.39l.16.24a1,1,0,0,0,.23.17l0,.09a1.14,1.14,0,0,0,.12.51,1.3,1.3,0,0,0,.39.48,2.65,2.65,0,0,0,.39.26,1.35,1.35,0,0,0,.48.31l0,0,1.14-.08a1.4,1.4,0,0,0,.3-.18,1,1,0,0,0,.26-.2l.58-.37v-.86a1.53,1.53,0,0,0,.16-.22l.3-.44v0l.28-.19.38-.27v-.47a1.21,1.21,0,0,0,0-.18l.16-.09.4-.28v-.18a1.57,1.57,0,0,0,.34-.7l.07-.26a1.51,1.51,0,0,1,.1-.35l.06-.08a1.48,1.48,0,0,0,.76-.78,1.9,1.9,0,0,0,.14-.72,1.65,1.65,0,0,1,0-.31.38.38,0,0,1,.19-.24l.44-.39V181a1.7,1.7,0,0,0,0-.28,1.6,1.6,0,0,0,.87-1.34,1.49,1.49,0,0,0,0-.21,1.3,1.3,0,0,0,.34-.28,1.57,1.57,0,0,0,.31-.45l.67-.67v-.59h0a2.44,2.44,0,0,0,.37-.36l.65-.6-.06-.56.1-.28a1.27,1.27,0,0,0,.62-.68l.06.28-.11.35.18.59c0,.15.1.31.13.42l-.07.56,0,.21a1.73,1.73,0,0,0-.15.47,2.18,2.18,0,0,0,0,.68c0,.1,0,.21.05.42h0a1.76,1.76,0,0,0-.1.56A4.3,4.3,0,0,0,67,180l0,.28a1.6,1.6,0,0,0-.12.65l0,.33-.12.46.12.38-.07.35,0,.13-.25.3.27.54c0,.07.08.15.11.19l-.11.36.08.27,0,.08,0,.3a.8.8,0,0,0,.1.45c0,.42,0,.56,0,.49l-.27.52.23.38-.06.12,0,.26c0,.14,0,.33,0,.53a7.13,7.13,0,0,0,0,.79,1.42,1.42,0,0,0,.07.28l-.18.12.07.56a2.42,2.42,0,0,1,0,.53l-.07.38.15.2-.11.39.06.16-.24.36.19.43-.14.95.32.27a2.51,2.51,0,0,1-.11.46l-.11.52.21.23a1.26,1.26,0,0,0,0,.53A1.4,1.4,0,0,0,67,195V196l.09.53-.27.55.21.56a1,1,0,0,0,.23.47l.21.63h.66l.36,0a1.3,1.3,0,0,0,.84-.06h.08l.47.08.33-.33a3.79,3.79,0,0,0,.34-.43l.42-.55-.26-.75a3.88,3.88,0,0,0,0-.82,3.61,3.61,0,0,0-.08-.38,1.12,1.12,0,0,1,0-.44,2.27,2.27,0,0,0,.08-.54v-.28l-.07-.1.06-1.09-.1-.48.19-.69-.12-.16a1.11,1.11,0,0,0,.11-.49l-.08-.47-.2-.2a1.29,1.29,0,0,0,.16-.31l.11-.33-.13-.32-.09-.2a1,1,0,0,0,.06-.37v-1.54a2,2,0,0,0-.07-.47.3.3,0,0,0,0-.09,1.62,1.62,0,0,0,.13-.51.75.75,0,0,0-.06-.49,1.42,1.42,0,0,0,.11-.35l0-.24-.08-.23a.36.36,0,0,0,0-.11.83.83,0,0,0,.06-.32v-.38l0,0,0,0-.15-.68.13-.78-.14-.24a3.22,3.22,0,0,1,0-.5,3.19,3.19,0,0,0,.13-.71,1.27,1.27,0,0,0,.1-.46v-.49l0,0,0-.07-.31-.75v-.18a.57.57,0,0,0,.09-.28,2.17,2.17,0,0,0,.05-.79l.09-.67-.26-.26v0l.06-.09.16-.24,0-1.29a1.75,1.75,0,0,0,.22-.72l.08-.34-.25-.3a2.25,2.25,0,0,1,0-.48,3.46,3.46,0,0,0,.07-.6v-.83l.07-.33-.14-.37.22-.48-.27-.45.1-.54-.08-.13v0a1.41,1.41,0,0,0,.16-.59,2.94,2.94,0,0,0-.2-.85l-.17-.43-.45-.12-.45-.14a2.35,2.35,0,0,0-.78-.2l-.51,0-.45,0h-.33l-.42,0a3.82,3.82,0,0,0-1.32.46l-.33.2-.1.37a2.44,2.44,0,0,1-.07.32,2.43,2.43,0,0,0-.31.39,1.45,1.45,0,0,0-.12.37h0l-.15.16-.12.46a.49.49,0,0,0,0-.13,2.41,2.41,0,0,0-.47.51,3,3,0,0,0-.27.66l-.11.12a3.21,3.21,0,0,0-.34.47,3.43,3.43,0,0,0-.41.85c0,.1-.07.2-.09.25a2.59,2.59,0,0,1-.3.32l-.4.41-.23.26v.39l-.14.17-.12.15-.43.27v.5l-.21.29a1.1,1.1,0,0,0-.12.49,3,3,0,0,0-.39.54,1.79,1.79,0,0,0-.23.72,1.84,1.84,0,0,1-.19.25c-.12.16-.24.32-.32.45s-.3.58-.42.85l-.07.27a1.22,1.22,0,0,0-.35.65l-.3.3v.43l-.45.38v.14l-.07.09a1.64,1.64,0,0,0-.21.61l-.27.09v.6l-.07.06-.12.14a1.17,1.17,0,0,0-.18.46h0c-.07-.11-.14-.2-.21-.29l-.11-.18a4.32,4.32,0,0,0-.33-.61,1.85,1.85,0,0,0-.31-.4,1.19,1.19,0,0,0-.13-.49l-.25-.32-.21-.07a2.18,2.18,0,0,0-.2-.34v-.16l-.65-.88-.06-.12a4.09,4.09,0,0,0-.39-.6l-.25-.29a1.84,1.84,0,0,0-.35-.56,1.38,1.38,0,0,0-.2-.5l-.2-.25-.13,0a2.71,2.71,0,0,0-.2-.35v-.35l-.27-.27a.77.77,0,0,0-.19-.15,1.59,1.59,0,0,0-.12-.4,1.1,1.1,0,0,0-.51-.5l-.09-.21c0-.12-.09-.23-.12-.28l-.12-.27a4.39,4.39,0,0,0-.48-.86,1.1,1.1,0,0,0-.33-.32h0a2.32,2.32,0,0,0-.23-.57l-.34-.57a2.52,2.52,0,0,0-.25-.68,2.17,2.17,0,0,0-.77-.79,2,2,0,0,0-.2-.46,2,2,0,0,0-.24-.27L48.8,170l-.16-.16c-.06-.08-.1-.11-.08-.05l-.26-.51h-.56a2.46,2.46,0,0,1-.37,0l-.52-.06a1.32,1.32,0,0,0-.41.07l-.19-.1-.61.06-.42.07-.26.48a2.88,2.88,0,0,0-.2.46,1.59,1.59,0,0,0-.1.8l-.11.69Zm22.35,19.36a.54.54,0,0,1,.1-.16h0Zm-9.59-7.89-.16.15h0A.52.52,0,0,1,57.49,183.5Z"/><path d="M98.62,199.08a1.5,1.5,0,0,0,.34.82l.23.38.75.1a5.48,5.48,0,0,0,.64.07,1.73,1.73,0,0,0,1.11-.51,2.14,2.14,0,0,0,.69-1.68,3.79,3.79,0,0,0-.07-.65l0-.25a2,2,0,0,0,0-.65,1.68,1.68,0,0,0-.17-.43l.27-.32-.23-1.88.13-.55,0-.47,0-.05a1.79,1.79,0,0,0,0-.6c0-.16-.09-.32-.14-.5a1,1,0,0,0,.2-.61l-.1-.54.09-.34-.14-.29.13-.78-.09-.14a1.23,1.23,0,0,0,0-.5,3.78,3.78,0,0,0-.14-.54c0-.08,0-.17,0-.25s0-.27,0-.36,0-.2,0-.45a1.84,1.84,0,0,0,.19-.59,1.27,1.27,0,0,0-.19-.84l0-.07a2,2,0,0,0,.14-.76l-.14-.63v-.16l0-.28a2.77,2.77,0,0,0,.22-.89,1.4,1.4,0,0,0-.15-.56,2.34,2.34,0,0,1-.11-.28c0-.07,0-.12,0-.13s.07-.33.12-.52a3.89,3.89,0,0,0,.15-.81,1.28,1.28,0,0,0-.08-.44v-.24a4.35,4.35,0,0,0-.11-.91,1.6,1.6,0,0,0-.08-.26,1.71,1.71,0,0,0,.18-.6,14.26,14.26,0,0,0,0-1.43c0-.38,0-.78,0-1.13a20.21,20.21,0,0,1,.21-2.29,6.93,6.93,0,0,0-.05-.77l.1.12a3,3,0,0,0,.15.32l.12.25a2.17,2.17,0,0,0,.41.53l0,0a1.58,1.58,0,0,0,.06.8,6.11,6.11,0,0,0,1,1.61.22.22,0,0,1,0,.08,2,2,0,0,0,.13.86,3.18,3.18,0,0,0,.41.65l.12.15a1.72,1.72,0,0,0,.09.46,1.4,1.4,0,0,0,.35.53l0,.12c.07.18.14.36.24.56v0a2.12,2.12,0,0,0,0,.58l.22.39v.07c0,.11,0,.22,0,.32v.37l.26.27a1,1,0,0,0,.21.17c.07.16.13.39.2.6a6.49,6.49,0,0,0,.23.68l.13.3.49.23a3,3,0,0,1,.21,1,3.43,3.43,0,0,0,.28.82l.07.24.45.42a2.48,2.48,0,0,1,.19.26l.18.25,0,.15a2.82,2.82,0,0,0,.13.57,1.17,1.17,0,0,0,.23.38,1.38,1.38,0,0,0,.08.55l.07.35.11.17a1.21,1.21,0,0,0,.23.26,1.27,1.27,0,0,0,.27.53,1,1,0,0,0,.29.26.93.93,0,0,1,0,.1v.84l.2.05s0,.09,0,.13a1.65,1.65,0,0,0,.39.72l.13.17a7.1,7.1,0,0,1,.29.86l.18.34a3.66,3.66,0,0,1,.47,1.13,7.69,7.69,0,0,0,.31.85l.14.25.26.13.52-.76h0l-.17.5-.27.22a4.56,4.56,0,0,1,.32.89c.07.26.15.53.24.78a2.94,2.94,0,0,0,.39.7l.18.38a7,7,0,0,0,.46.9,3.84,3.84,0,0,0,.31.34l.31.42,1-.12c.13,0,.73.06,1.18.13a1.49,1.49,0,0,1,.28.06l.33.05a2.22,2.22,0,0,0,1.05-.37,2,2,0,0,0,.84-1.55,1.75,1.75,0,0,0,.12-.54,2.8,2.8,0,0,0,0-.45l.09-.59a5.45,5.45,0,0,0,0-.8l-.11-.38.15-.17v-.39l-.2-.75,0-1.08-.08-.63.16-.66,0-.36a2.43,2.43,0,0,1-.07-.57,4.13,4.13,0,0,1,0-.58,10.17,10.17,0,0,0,.08-1.2,2.15,2.15,0,0,0-.1-.59,3.49,3.49,0,0,1,0-.44l0-.41a3.53,3.53,0,0,0-.1-.71c0-.06,0-.12,0-.19a2,2,0,0,0,.1-.58,2.54,2.54,0,0,0-.1-.65.65.65,0,0,1,0-.29,1.52,1.52,0,0,0,.11-.55,2.6,2.6,0,0,0-.06-.83,1.16,1.16,0,0,1,0-.18,2,2,0,0,1,.07-.53l0-.26a3.22,3.22,0,0,0-.18-.87,1,1,0,0,0,.09-.29l0-.18a1.88,1.88,0,0,0-.09-.53,1.05,1.05,0,0,1,0-.26,3.12,3.12,0,0,1,.06-.41,4.45,4.45,0,0,0,.08-.55,3.54,3.54,0,0,0-.08-.69v-.17a1.39,1.39,0,0,0,.23-.53l.08-.31-.14-.3a2,2,0,0,1-.1-.69,7.1,7.1,0,0,0-.1-1.05c0-.16.06-.33.1-.51l.2-.79-.35-.34a1.44,1.44,0,0,1,0-.36,1.9,1.9,0,0,0,.12-.36l0-.22c0-.47.06-1,.13-1.47a1.46,1.46,0,0,0-.13-.79,4.05,4.05,0,0,1,.17-.63l.1-.31v-.15c0-.11-.06-.58-.13-1.06l-.14-1-.58-.37-.32-.21-.21-.13h-.57a2.64,2.64,0,0,0-1.14.33l-.22.11-.13.25a2.19,2.19,0,0,0-.23.5l-.15.28,0,.77.15.16,0,.17c0,.16,0,.35-.07.56a8.13,8.13,0,0,0,0,.87v.49l0,.25a3.34,3.34,0,0,1,.07.69,2.48,2.48,0,0,0,0,.57,1.6,1.6,0,0,0,.1.56.57.57,0,0,0,0,.14A6.21,6.21,0,0,0,116,175l.07.43-.13.22.2.38a3.34,3.34,0,0,0-.06,1.36l0,.31a1.36,1.36,0,0,0-.11.53,4.4,4.4,0,0,0,0,.49c0,.11,0,.23,0,.33s0,.45,0,.65a3.31,3.31,0,0,0,0,.52,1.09,1.09,0,0,0,0,.58l0,.25c0,.08,0,.17,0,.36l0,.19a2.6,2.6,0,0,0,0,.39,5.63,5.63,0,0,0-.08.69c0,.57,0,1.18,0,1.79l0,.88a2,2,0,0,0-.11.6,3.1,3.1,0,0,0,.07.53,1.32,1.32,0,0,1,0,.34c-.06.42-.07.7-.09.91a1.61,1.61,0,0,1,0,.26l0,.25a1.54,1.54,0,0,0,.15.63,4.8,4.8,0,0,1,0,.62,5.71,5.71,0,0,0,0,.86,1.4,1.4,0,0,0,.08.34v.2a1.78,1.78,0,0,0-.11.54,3.55,3.55,0,0,0,.11.7c0,.09,0,.23,0,.35a2.51,2.51,0,0,0,0,.4,12.19,12.19,0,0,0,.14,1.23,1.12,1.12,0,0,0-.11.5,2.63,2.63,0,0,1-.15-.35,6,6,0,0,0-.29-.63l-.18-.32-.39-.93v-.23l-.37-.36-.11-.28-.06-.27,0-.11a2.14,2.14,0,0,0-.35-1.2,1.79,1.79,0,0,0-.24-.27,1,1,0,0,1-.23-.29,2.33,2.33,0,0,0-.24-.63c-.06-.13-.13-.25-.2-.38l0-.22-.91.16.87-.38a2.35,2.35,0,0,0-.24-.85,1.39,1.39,0,0,0-.43-.47.9.9,0,0,0-.23-.52,1.49,1.49,0,0,0-.34-.3v0a3,3,0,0,0-.55-1.57l-.1-.16h0a4.15,4.15,0,0,0-.4-1.19,1,1,0,0,0-.45-.58c0-.07,0-.16,0-.24a3,3,0,0,0-.18-.66,3,3,0,0,0-.38-.6,1.8,1.8,0,0,0-.14-.17c0-.06,0-.13,0-.19a3,3,0,0,0,0-.52l0-.3-.21-.22-.15-.12v-.19l-.18-.25a1.79,1.79,0,0,0-.24-.24.77.77,0,0,0-.12-.33,1.72,1.72,0,0,0-.34-.45l0-.14-.08-.22v-.1l-.09-.11a2.44,2.44,0,0,0-.12-.42,3.1,3.1,0,0,0-.46-.68c-.07-.08-.14-.16-.14-.13a4.84,4.84,0,0,1-.18-.68,7.08,7.08,0,0,0-.23-.81,2.33,2.33,0,0,0-.27-.4,2.72,2.72,0,0,0-.14-.86l-.06-.24-.18-.18a2.22,2.22,0,0,0-.37-.29c0-.1,0-.2-.08-.32l-.24-.91-.16-.06a1.35,1.35,0,0,0,0-.63,2.19,2.19,0,0,0-.4-.77l-.12-.15a.53.53,0,0,0-.11-.09l-.09-.32a2.69,2.69,0,0,1-.16-.38l-.08-.46-.38-.28a2,2,0,0,0-1.13-.51.92.92,0,0,0-.44.1,1.63,1.63,0,0,0-.93-.08l-.49-.08-.88-.11a1.07,1.07,0,0,0-.65.19,3.3,3.3,0,0,0-.56.36,1.21,1.21,0,0,0-.39.86l0,.65c0,.35-.05.68-.05.85a2,2,0,0,0,.13.88,3.71,3.71,0,0,1,0,.55,3.65,3.65,0,0,0-.05.39,4.56,4.56,0,0,0,0,.74,2.59,2.59,0,0,1,0,.42,3,3,0,0,0,0,.7c0,.1,0,.19.09.45s0,.62,0,.93,0,.67,0,.91a1.54,1.54,0,0,0,.09.37,3.79,3.79,0,0,0-.1.51c0,.05,0,.1,0,.15l-.1,1a3.08,3.08,0,0,0,0,.61,1.41,1.41,0,0,1,0,.29l-.09.26a2.82,2.82,0,0,0-.06.6,4,4,0,0,0,.33,1.17l0,.19a9.31,9.31,0,0,0,0,.94,2.92,2.92,0,0,0,.11.67,1.72,1.72,0,0,1-.09.36,4.48,4.48,0,0,0-.12.65,1.36,1.36,0,0,1,0,.2.31.31,0,0,1,0,.1l0,1,.15.61-.11.76a1.24,1.24,0,0,0,.14.55,2.94,2.94,0,0,0,0,.37.91.91,0,0,0,0,.33,3.7,3.7,0,0,0-.12,1.08,1.4,1.4,0,0,0,.14.57,1.42,1.42,0,0,1,0,.22,2,2,0,0,0-.07.7l0,.21a2.24,2.24,0,0,1,.06.48l0,.26a2.26,2.26,0,0,0,.08.53,1.4,1.4,0,0,0-.14.52,2.13,2.13,0,0,0,0,.62,1.49,1.49,0,0,1,0,.21,1.52,1.52,0,0,1,0,.46,1.8,1.8,0,0,0-.15.67,4.41,4.41,0,0,0,.11.89l0,.12a6.83,6.83,0,0,1,.06.78l0,.26a5,5,0,0,1,0,.63,1.88,1.88,0,0,1-.08.66ZM97.69,198a1.21,1.21,0,0,0-.3-.76c0-.1-.06-.2-.1-.3l-.06-.17a7.61,7.61,0,0,0-.39-.95l0-.15a1.66,1.66,0,0,0-.23-.73.94.94,0,0,0-.23-.25l-.06-.22c0-.1,0-.2,0-.28a1.83,1.83,0,0,0-.15-.76,2,2,0,0,0-.36-.49l-.09-.81a2.5,2.5,0,0,0-.17-.69,3.21,3.21,0,0,0-.29-.46,2.25,2.25,0,0,1-.19-.33c0-.09-.08-.17-.11-.26l0-.63-.14-.22a2,2,0,0,0-.16-.42,1.66,1.66,0,0,0-.18-.24,1.39,1.39,0,0,0,0-.44,1.15,1.15,0,0,0-.25-.48,1.31,1.31,0,0,0-.1-.53l-.29-.42,0-.11a3.67,3.67,0,0,0-.45-1.29,4.91,4.91,0,0,0-.29-1.2,2.21,2.21,0,0,0-.24-.44c0-.07,0-.16-.08-.24a3,3,0,0,0-.12-.36,2.29,2.29,0,0,1-.15-.51v-.37l-.36-.36c0-.16-.09-.33-.13-.49a6.49,6.49,0,0,0-.22-.73,3.48,3.48,0,0,0-.3-.55l-.1-.2a3.19,3.19,0,0,1-.14-.6A3,3,0,0,0,91,179a6.63,6.63,0,0,0-.48-1.45,1.31,1.31,0,0,0-.29-.55,1.51,1.51,0,0,0-.14-.59,7.89,7.89,0,0,0-.59-1.15.63.63,0,0,1-.07-.12,3.22,3.22,0,0,0-.24-1.26,2.85,2.85,0,0,0-.37-.49,1.33,1.33,0,0,1-.19-.22c0-.11-.1-.24-.15-.37a4.09,4.09,0,0,0-.28-.65.94.94,0,0,0-.23-.25,3.28,3.28,0,0,0-.15-.51c0-.16-.07-.31-.11-.46a9.83,9.83,0,0,0-.28-1c-.05-.12-.12-.25-.19-.38a0,0,0,0,0,0,0,1.36,1.36,0,0,0-.06-.51l-.31-.53-.26-.21a2.15,2.15,0,0,0-.91-.3A1.72,1.72,0,0,0,84.21,169l0,.1c0,.08-.09.18-.14.28l0,.17c0,.1,0,.2,0,.23a1.3,1.3,0,0,1-.17.23l-.25.29,0,.35a1.53,1.53,0,0,1-.14.46,1.78,1.78,0,0,0-.42.67V172a1.18,1.18,0,0,1-.11.19,2.79,2.79,0,0,0-.22.41l-.07.17a1.69,1.69,0,0,0-.21.7,1.38,1.38,0,0,0,0,.22c0,.1-.08.19-.11.29a3.68,3.68,0,0,1-.21.46l-.11.16a3.19,3.19,0,0,0-.42.63c0,.12-.11.35-.16.58s-.07.3-.06.24l-.1.22c-.14.29-.25.55-.35.82a1.21,1.21,0,0,0-.1.7,1.68,1.68,0,0,0-.18.23,2.19,2.19,0,0,0-.6,1,.76.76,0,0,0,0,.39l-.31.18-.2.72a4.88,4.88,0,0,1-.27.82l-.11.3a3.21,3.21,0,0,0-.2.62,1.27,1.27,0,0,0-.34.46,2.15,2.15,0,0,0-.09.64.25.25,0,0,0,0,.09,1.54,1.54,0,0,0-.42.53,1.33,1.33,0,0,0-.13.6.7.7,0,0,1-.1.16,3.3,3.3,0,0,0-.29.51,3.73,3.73,0,0,0-.15.42.57.57,0,0,1,0,.14l-.41.61a2.7,2.7,0,0,0-.18.65,1.06,1.06,0,0,1,0,.19h0a2.18,2.18,0,0,0-.22.25l-.58.87.11.06a2.18,2.18,0,0,0-.09.6,1.42,1.42,0,0,1-.14.23,2.83,2.83,0,0,0-.24.44l-.07.24a3.49,3.49,0,0,0,0,.41v0l-.09.21a1.29,1.29,0,0,0-.63.67,2.54,2.54,0,0,0-.14.74c0,.09,0,.19,0,.12l-.13.21a3.74,3.74,0,0,0-.31.57,2.83,2.83,0,0,0-.13.5c0,.07,0,.17,0,.2l-.09.17a1.4,1.4,0,0,0-.17.28l-.1.31a1.83,1.83,0,0,1-.24.77,2.18,2.18,0,0,1-.14.25,3,3,0,0,0-.28.46,1.64,1.64,0,0,0-.14.47l-.1.16a2.5,2.5,0,0,0-.29.37,2.88,2.88,0,0,0-.39,1.33v.37l.22.46.3.15a.69.69,0,0,0,.23.11l.15.12a1.64,1.64,0,0,0,1,.32,1.6,1.6,0,0,0,1.17-.66,1.23,1.23,0,0,0,.39-.42,3.87,3.87,0,0,0,.36-.89,1.75,1.75,0,0,1,.15-.41,4.53,4.53,0,0,0,.27-.54c0-.12.08-.27.12-.42a1.46,1.46,0,0,1,.13-.34,2,2,0,0,0,.25-.39A2.68,2.68,0,0,0,77,195l0,0,.29-.44v-.38a.59.59,0,0,0,0-.14,4.14,4.14,0,0,0,.26-.53,1.8,1.8,0,0,0,.37-.76,2.36,2.36,0,0,0,0-.28c0-.08,0-.17,0-.2a1.17,1.17,0,0,1,.14-.25l.15-.64.27-.32a1.74,1.74,0,0,0,.11-.18,3.84,3.84,0,0,0,.38-.76,1.92,1.92,0,0,0,.15-.64h0a1.63,1.63,0,0,0,.36-.61h0l.08-.29h0a1.6,1.6,0,0,0,.28-.44,2.55,2.55,0,0,0,.2-.69h0l0,0a1.36,1.36,0,0,0,.28-.39,2.19,2.19,0,0,0,.17-.53l0-.11.16-.19a3.24,3.24,0,0,0,.29-.6,1,1,0,0,1,.07-.18,1.28,1.28,0,0,0,.13-.49,1,1,0,0,0,.32-.38,1.84,1.84,0,0,0,.15-.47l.08-.41a1.51,1.51,0,0,1,0-.31,2.32,2.32,0,0,1,.52,0,2.4,2.4,0,0,0,.64.05,2.92,2.92,0,0,0,.88-.17l.28-.08c0-.07.15,0,.23,0a2,2,0,0,0,1.18,0,7.28,7.28,0,0,0,1.83,0,2,2,0,0,1,.5,0,2.12,2.12,0,0,1,.62.12l.11,0a1.45,1.45,0,0,0,.52.1c0,.22.12.43.18.61l0,.1a5.18,5.18,0,0,1,.05,1l.72.87,0,.06-.07.79.06.06v.09l.14.6.29.21a1.39,1.39,0,0,0,.14.38.57.57,0,0,0,0,.13l.11.45.19.25a1.83,1.83,0,0,0,.13.16v.09l-.1.48.35.35.1.18c.08.25.15.51.24.77s.16.38.25.56a3.61,3.61,0,0,1,.26.61l.28,1.37.27.21a1.57,1.57,0,0,0,.22.49c.07.3.16.67.26,1a1.39,1.39,0,0,0,.15.36.89.89,0,0,0,0,.43,1.55,1.55,0,0,0,.29.62c0,.06,0,.12,0,.19a2,2,0,0,0,.07.51,2.06,2.06,0,0,0,.32.74l.1.19c.17.36.59,1.19,1.4,1.19a1.09,1.09,0,0,0,.36-.06l1-.2a1.22,1.22,0,0,0,.69-.89Zm21.36-.61Z"/><path d="M122.15,187.34a.29.29,0,0,0,0,.09,2.63,2.63,0,0,0-.07.54,2.54,2.54,0,0,0,.16.73c0,.05,0,.1,0,.14a1.14,1.14,0,0,0-.06.25,6.42,6.42,0,0,0-.16.86l-.07.13.18.29a5.79,5.79,0,0,0-.12.76,2.74,2.74,0,0,0,.08.68,1.12,1.12,0,0,0-.08.45c0,.21.06.37.13.38l-.26.51.56.74a2.76,2.76,0,0,0,.49.84.79.79,0,0,0,.34.2l.16.18a1.87,1.87,0,0,0,.28.32,3.52,3.52,0,0,0,.42.31,1.61,1.61,0,0,0,.38.53l.34.22.24.21a2.69,2.69,0,0,0,.33.41,12.25,12.25,0,0,0,1.08.88l.7.54h.09l0,.05a3.57,3.57,0,0,0,.41.59,1.67,1.67,0,0,0,1.26.66,1.11,1.11,0,0,0,.48-.1,14.52,14.52,0,0,1,1.86.06,4.74,4.74,0,0,1,.59.1,2,2,0,0,0,.47.08,2.89,2.89,0,0,0,.48-.07l.49,0,.4,0a3.24,3.24,0,0,0,.47-.06l.25,0a3.62,3.62,0,0,0,1.84-.68,2,2,0,0,0,.29-.29,1.54,1.54,0,0,0,.3-.14l.23-.22a1.63,1.63,0,0,0,.19-.37l0,0c.16-.11.38-.26.65-.48a3.14,3.14,0,0,0,.49-.53,2.17,2.17,0,0,0,.71-.38l.67-.67c.24-.25.52-.54.87-.87a5.93,5.93,0,0,0,.4-.51,2.45,2.45,0,0,0,.52-.38l.27-.27v-.38a3.8,3.8,0,0,1,.06-.68,4.43,4.43,0,0,1,.14-.6,2.64,2.64,0,0,0,.11-.61,1.56,1.56,0,0,0-.09-.46c0-.09-.07-.2-.1-.32a1.27,1.27,0,0,0,.08-.38,1,1,0,0,0,0-.55,4.32,4.32,0,0,0,.14-1.25,2.42,2.42,0,0,0,.12-.91,1.93,1.93,0,0,0-.07-.44,1.68,1.68,0,0,1-.06-.24l.06-.73-.26-.26-.36-.31a1.36,1.36,0,0,0-.54-.2,5.48,5.48,0,0,0-.68,0,2.09,2.09,0,0,0-.61,0c-.28,0-.63.11-.9.17a.79.79,0,0,1-.3,0,2.27,2.27,0,0,0-.42-.05,5.13,5.13,0,0,0-1,.13l-.31-.16-.36.2-.13-.1h-.31l-.19,0-.27-.12a2.46,2.46,0,0,0-.57-.09,1.82,1.82,0,0,0-.41,0,1.59,1.59,0,0,0-.34,0,4.58,4.58,0,0,0-1,.15h0a1.64,1.64,0,0,0-.91-.27,2.11,2.11,0,0,0-1.67.93,2.09,2.09,0,0,0-.27,1.12c0,1.49.12,1.84.34,2.19a1.68,1.68,0,0,0,1.4.58,7.16,7.16,0,0,0,1.45-.32,2.47,2.47,0,0,1,.73,0c.26,0,.72.1,1.3.15a9.22,9.22,0,0,0,1,0,6.87,6.87,0,0,1,1.11,0,4.57,4.57,0,0,1,1,.14c0,.09-.05.21-.08.36a3.69,3.69,0,0,0-.05.75,2.53,2.53,0,0,1,0,.47,2.3,2.3,0,0,1-.14.45,3.27,3.27,0,0,0-.19.58.76.76,0,0,0,0,.21,10.29,10.29,0,0,1-.88.62,8.49,8.49,0,0,0-.8.58,9.85,9.85,0,0,0-.89.69,3.73,3.73,0,0,0-.53.62l-.06.12a6.14,6.14,0,0,1-.74.39,1.42,1.42,0,0,1-.39.12,2.15,2.15,0,0,1-.44,0h-.28a3.2,3.2,0,0,0-.63.07,1.79,1.79,0,0,1-.57,0,4.37,4.37,0,0,0-1.38.08,2.76,2.76,0,0,1-.39.09l-.28-.06-.4-.07a3.16,3.16,0,0,1-.6-.49c-.16-.18-.32-.33-.49-.49l-.48-.48a3.23,3.23,0,0,1-.23-.27c-.14-.17-.28-.35-.45-.52a1.61,1.61,0,0,0-.29-.21,1.3,1.3,0,0,0-.37-.39l-.2-.08a1.22,1.22,0,0,0-.2-.28l-.27-.27h-.19l-.08-.07,0,0a1.81,1.81,0,0,0-.3-.39,1.35,1.35,0,0,1-.24-.34.29.29,0,0,1,0-.15,3,3,0,0,0,.14-.84c0-.16,0-.34,0-.53l.23-.09v-.63l-.25-.94.25-1.74a1.07,1.07,0,0,0-.24-.7,2,2,0,0,1,.09-.26,2.29,2.29,0,0,0,.15-.51,1.07,1.07,0,0,0-.11-.63,2.19,2.19,0,0,0,.18-.71,3,3,0,0,0-.06-.53l0-.32c0-.14,0-.29,0-.43a5.24,5.24,0,0,0,0-.58l0-.13c0-.1.07-.24.11-.44a2.76,2.76,0,0,0,0-.55c.06-.29.15-.59.15-.6l0-.26a3.9,3.9,0,0,0-.16-.87,1.4,1.4,0,0,1-.06-.49,1.8,1.8,0,0,1,0-.22,1.1,1.1,0,0,0,.14-.21l.23-.49-.21-.3-.08-.68a2.61,2.61,0,0,1,0-.48,3.15,3.15,0,0,1,.08-.47l.08-.37a2.43,2.43,0,0,0-.08-.81,1.25,1.25,0,0,1,.19-.33,1.52,1.52,0,0,0,.33-.26,8.52,8.52,0,0,0,1.06-.94,2.92,2.92,0,0,0,.23-.29,2.08,2.08,0,0,1,.26-.3,3.47,3.47,0,0,1,.37-.26l.43-.3a3.15,3.15,0,0,0,.45-.49l.18-.14a4.85,4.85,0,0,0,.51-.43,1.28,1.28,0,0,0,.26-.4l.43,0,.27,0a2.13,2.13,0,0,0,.72-.17,3.26,3.26,0,0,1,.87.12,5.49,5.49,0,0,0,.6.11c.3,0,.6,0,.89,0a4.19,4.19,0,0,1,1.13.11,2.7,2.7,0,0,1,.87.69c.14.15.31.32.55.54s.37.29.59.46.61.45.9.7l.17.14a3.54,3.54,0,0,1,.49.45l.12.15a3,3,0,0,0,.35.43,4.46,4.46,0,0,0,.5.35,2.17,2.17,0,0,0-.13.8c0,.13,0,.46.08.75l0,.22c.05.16.08.26.06.23l-.18.33c0,.1,0,.24,0,.19l-.17.34.3.81a2,2,0,0,0,0,.26l.15.74h.95l.29.11.77-.1.31-.07h.92v-1.08h0a1.16,1.16,0,0,1,.06-.22,1.47,1.47,0,0,0,.12-.53,1.71,1.71,0,0,0-.18-.68,1.86,1.86,0,0,1,0-.41v-.47a2.22,2.22,0,0,0-.11-.39,1.21,1.21,0,0,0,.12-.52,3.17,3.17,0,0,0-.08-.68l0-.23a2,2,0,0,1,0-.43v-.49l-.72-.73a10.17,10.17,0,0,1-1.18-.94l-.28-.3a5.92,5.92,0,0,0-.41-.45c-.19-.19-.38-.36-.59-.55s-.45-.39-.71-.65a1.48,1.48,0,0,0-.48-.33,1.13,1.13,0,0,0-.43-.49l-.39-.29a7.78,7.78,0,0,0-1.86-1.13,4.26,4.26,0,0,0-1.61-.2h-.27l-.32,0a2.85,2.85,0,0,0-1.2.06,1.46,1.46,0,0,1-.4,0l-.7-.08c-.38,0-.8,0-.84,0a2.08,2.08,0,0,0-.71.16l-.26.07a2.31,2.31,0,0,0-.67.25,3,3,0,0,0-.79.8,2.48,2.48,0,0,1-.42.47,5.44,5.44,0,0,1-.64.43,7.17,7.17,0,0,0-.86.56,1.42,1.42,0,0,0-.42.58c-.14.14-.25.27-.35.39l-.16.19-.43.26a6.7,6.7,0,0,0-.81.54l-.17.17a5.23,5.23,0,0,0-.58.62l-.53.68-.33.51.2.32a1.83,1.83,0,0,0-.09.54,1.18,1.18,0,0,0,0,.32,1,1,0,0,0-.08.4l.06.27a2,2,0,0,0-.06.48v.39l.12.11a2.1,2.1,0,0,0-.12.42c0,.19,0,.4,0,.6s0,.2,0,.18l-.19.34.19.39a1.77,1.77,0,0,1,.1.46v.05l-.31.31,0,1.18a1.44,1.44,0,0,0,.29.79l0,.52,0,.56-.21.66.2.67-.1.73.09.45a.5.5,0,0,0,0,.15,1.37,1.37,0,0,0-.1.6l-.09.33.05.09Z"/><path d="M156.53,200.58l1.44-.06a3.59,3.59,0,0,0,1.76-.72,7.27,7.27,0,0,0,1.16-1.13,4.29,4.29,0,0,1,.64-.72,1.86,1.86,0,0,0,.58-.34,3.39,3.39,0,0,0,.55-.67c.06-.08.11-.16.17-.23a1.56,1.56,0,0,1,.34-.23,2,2,0,0,0,.38-.28l.16-.15.24-.58a2.53,2.53,0,0,0,.32-.3,5.54,5.54,0,0,0,.86-1l.17-.24v-.29a5.9,5.9,0,0,1,.1-1,2.18,2.18,0,0,1,.08-.44l.07-.31-.15-1.36.07-1-.07-.43.22-.43-.14-.38a1.74,1.74,0,0,1,.11-.51c0-.13.07-.25.09-.37l0-.43-.2-.32-.06-.1a1.55,1.55,0,0,1,.05-.23,2.56,2.56,0,0,0,.11-.49,5.85,5.85,0,0,0,0-1.28,1.12,1.12,0,0,0,0-.27l.17-.43-.07-.31a2.31,2.31,0,0,1,0-.32c0-.21,0-.43,0-.64a8.66,8.66,0,0,0-.07-.89,1.52,1.52,0,0,0,.19-.67,1.46,1.46,0,0,0-.16-.62l.16-.23v-.28a.88.88,0,0,0-.14-.55.53.53,0,0,1,.06-.25,2,2,0,0,0,.15-.74,3.15,3.15,0,0,0-.07-.58,1.1,1.1,0,0,1,0-.37,2.31,2.31,0,0,0,.06-.5c0-.44-.05-.84-.08-1.2a4.28,4.28,0,0,1,0-1,2.14,2.14,0,0,0,.13-.67,6.15,6.15,0,0,0-.06-.75,4,4,0,0,1,0-.56c0-.49,0-1,.06-1.71,0-.38,0-.81.08-1.33v-.16a1.85,1.85,0,0,0,.17-.7,2.12,2.12,0,0,0-.28-.9,1.9,1.9,0,0,0-1.53-.94,1.61,1.61,0,0,0-.83.22,8.23,8.23,0,0,0-.87.56l-.25.31a2,2,0,0,0-.23.85,1.2,1.2,0,0,0,.18.62.69.69,0,0,1,.08.23,2.5,2.5,0,0,1,0,.48c0,.19,0,.4,0,.69a6.06,6.06,0,0,1,0,.74c0,.35,0,.73,0,1.2a2.84,2.84,0,0,0,.16.62c0,.2-.13,1.45-.23,2.12l0,.29.26.53a1.5,1.5,0,0,0-.09.51l0,.22.06.18v0a2.12,2.12,0,0,0-.24.92,2.3,2.3,0,0,0,.11.64.76.76,0,0,1,.06.32,2.19,2.19,0,0,1-.09.38,4.1,4.1,0,0,0-.19,1.09,5.39,5.39,0,0,0,.12.82,2.9,2.9,0,0,1,.09.59,1.37,1.37,0,0,1-.08.65,2.48,2.48,0,0,0-.16.86,3.86,3.86,0,0,0,.1.75,2.22,2.22,0,0,1,.07.38,2.29,2.29,0,0,1-.09.42,3.16,3.16,0,0,0-.15.78,3.22,3.22,0,0,0,.11,1,.91.91,0,0,1,0,.36,1.27,1.27,0,0,0-.07.35,2.52,2.52,0,0,0,.09.91.93.93,0,0,1-.06.29,2.05,2.05,0,0,0-.11.67,7.48,7.48,0,0,1,0,1.16v.16l.05.16a3.13,3.13,0,0,1,.07.43,1.28,1.28,0,0,1-.09.22,3.47,3.47,0,0,0-.15.46,4.24,4.24,0,0,0,0,.52c0,.1,0,.27,0,.27a3.25,3.25,0,0,1-.62.57,6.7,6.7,0,0,0-.71.61c-.14.15-.26.3-.39.46a1.27,1.27,0,0,0-.16.22,2,2,0,0,0-.43.49.7.7,0,0,1-.06.09,1,1,0,0,0-.58.34,6,6,0,0,0-.43.42c-.15.15-.27.26-.71.65-.06.06-.19.14-.31.23a1.81,1.81,0,0,0-1.06.1c-.14,0-.29.09-.22.1l-.58-.08-.8-.09a2.91,2.91,0,0,0-.46.06l-.14,0a3.77,3.77,0,0,1-.7-.27,4.21,4.21,0,0,0-.43-.17c-.2-.25-.4-.48-.63-.72a1.72,1.72,0,0,0-.35-.56l-.28-.19a1.82,1.82,0,0,1-.86-.68,4.19,4.19,0,0,0-1.17-1.21,5.39,5.39,0,0,0-.41-.51l-.12-.14v-.2l.21-.74-.24-.71.06-.94c0-.13,0-.58.06-.92,0-.15,0-.3.07-.39l0-.31a1.41,1.41,0,0,0-.13-.6c0-.31.1-.82.18-1.26a3.43,3.43,0,0,0,.14-.42l.09-.32-.19-.3c0-.1-.15-.48-.16-.42a6.07,6.07,0,0,1,.23-.88l.08-.23-.11-.53-.07-.12a4.77,4.77,0,0,1,0-.92,2,2,0,0,1,0-.24,2.65,2.65,0,0,0,0-.53,1.8,1.8,0,0,0-.15-.56l0-.31c0-.19,0-.4.06-.69s0-.7.07-1a1.07,1.07,0,0,1,.06-.27,2.86,2.86,0,0,0,.11-.64,1.17,1.17,0,0,0-.18-.78,1.6,1.6,0,0,0,.25-.77,1.52,1.52,0,0,0-.22-.72l.1-.61-.15-.68c0-.11,0-.29,0-.5,0-.55.11-1.32.13-2.09a5.18,5.18,0,0,0-.08-.82l0-.1a2.35,2.35,0,0,1,0-.27v-.11a.35.35,0,0,1,0-.08,3.67,3.67,0,0,0,.47-2,2.1,2.1,0,0,0-.38-1.1l-.28-.36h-.29a2.28,2.28,0,0,0-1-.07l-.5,0a2.26,2.26,0,0,1-.26,0,2.56,2.56,0,0,0-.94.14,1.5,1.5,0,0,0-.59.39l-.29.26-.08.84a1.52,1.52,0,0,0,.08.46c0,.07,0,.14,0,.12a10.86,10.86,0,0,0,0,1.14,4,4,0,0,0,.08.56l-.13.76.13.6-.09.43,0,.47-.06,0,.07,1.56-.16,1,.18,1-.1,1.71,0,1.94-.13.12v.74a.94.94,0,0,0,.1.43c0,.27-.07.6-.1,1,0,.13,0,.27,0,.42l-.16.05v1.08l.15.27a2.53,2.53,0,0,1,0,.27v.24l0,.26s0,.09,0,.14a1.13,1.13,0,0,0-.1.13,1.09,1.09,0,0,0-.12,1h0l.17,1.07v.71a1.48,1.48,0,0,0-.13.55v.68h0a1.15,1.15,0,0,0-.15.87l.06.24.17.18h0l-.13.15v.46l-.26.22.22.44-.23.34.14.43a1.18,1.18,0,0,1,0,.26l0,.29a3.62,3.62,0,0,0,.17.61l.08.24.19.16c.28.25.51.42.71.58s.34.26.53.42a11.22,11.22,0,0,0,.76.83,4.65,4.65,0,0,0,.46.35.91.91,0,0,1,.21.18c.11.13.2.27.3.4a6.43,6.43,0,0,0,.71.86l.44.34.39.3.18.18a4,4,0,0,0,.53.48c.34.27.69.56,1.08.82l.27.17.66,0,.49.07,1-.11Zm8.18-20.45h0l.38.12-.14,0Zm.83.27a.5.5,0,0,1-.06.21l-.42-.26h.35Zm-19.07,4.86Z"/><path d="M176.73,200.19a1.36,1.36,0,0,0,.48,0,4,4,0,0,0,.84-.13,2.24,2.24,0,0,0,.51-.21l1.65.06,1.19-.07.41,0a5.21,5.21,0,0,1,.74,0l.76.14.66,0,.53-.08c.35-.06.9-.12,1-.12a6.16,6.16,0,0,1,.72.06l.29,0a2.4,2.4,0,0,0,1.5-.13l.23-.12.14-.23a1.35,1.35,0,0,1,.23-.3l.42-.34-.09-.53a2.24,2.24,0,0,0-.13-.48,1.61,1.61,0,0,1,0-.36v-.34l-.22-.26a2.12,2.12,0,0,0-1.35-.73l-.6,0-.36,0c-.69.05-1,.11-1.26.14a2.63,2.63,0,0,0-.6-.11,3.73,3.73,0,0,0-.67.1l-.11,0a2.78,2.78,0,0,1-.59,0l-.29-.07a2.15,2.15,0,0,0-.53-.09l-1.52.07-.69.09-.19,0a2.93,2.93,0,0,0-1.17,0l-.16.05a2.61,2.61,0,0,0-1,0l-.28-.07a8.35,8.35,0,0,0-1.22-.08,7.46,7.46,0,0,0-.8.1l-.54.07c-.12,0-.2,0-.14,0l-.52-.27-.49.34.06.91h0l-.28-.91h-.47V196l.25-2.36a1.28,1.28,0,0,0-.09-.48l0-.36a4.32,4.32,0,0,0,0-.61,1.52,1.52,0,0,0,.12-.63,4.55,4.55,0,0,1,.09-.49l0-.15.46,0,.28,0,.27.23.41-.07a2.33,2.33,0,0,1,.5,0l.42,0,.68-.15.43,0a1.39,1.39,0,0,0,.8.16l1.14-.59c.05-.09.09-.18,0-.11l.53-.33-.06-.63c0-.31,0-1.93,0-2.16v-.47l-.39-.28a1.73,1.73,0,0,0-.79-.34c-.24-.17-.59-.32-1.63-.24-.24,0-.51,0-.88,0a8.77,8.77,0,0,1-.89,0H174a3.85,3.85,0,0,0-.47.08l-.2-.84a1.75,1.75,0,0,1,0-.24,1,1,0,0,0,0-.26,1.21,1.21,0,0,0-.2-.67,1.06,1.06,0,0,0,0-.47L173,183l.15-1.38.17-.93,0-.39-.08-.23a1,1,0,0,1-.09-.51,3.86,3.86,0,0,1,.08-.64,9,9,0,0,0,.12-1v-.23a2.65,2.65,0,0,0,0-.62,2.49,2.49,0,0,0-.07-.33,1.25,1.25,0,0,0,.12-.52,1,1,0,0,0-.19-.57s0-.09,0-.14v-.2a1.44,1.44,0,0,1,.15-.38l.13-.27v-.22a1.27,1.27,0,0,0-.12-.54,1,1,0,0,0,0-.49c0-.2,0-.41-.08-.62a7.87,7.87,0,0,1-.12-1.2.41.41,0,0,0,0-.11.83.83,0,0,0,.13-.18l.34,0c.45,0,1-.06,1.37-.12a1.4,1.4,0,0,0,.53-.13c.08,0,.64,0,1.32.11a3.66,3.66,0,0,0,.39,0h.19l.34,0,.54.18.2-.21.33,0,1.24-.07a8.36,8.36,0,0,1,1,.07c.63,0,1.41.14,1.85.2a3.42,3.42,0,0,0,.62,0l.62-.12.89,0,.39.11.75-.18a2.82,2.82,0,0,1,.5,0h.52a1.63,1.63,0,0,0,.31,0h.38l1-.55.11-.4a5.64,5.64,0,0,0,.13-1.41l0-.21a1,1,0,0,1,0-.24v-.43l-1-.83-2.73.35c-.13,0-.23-.1-1,0l-.27,0a.93.93,0,0,0-.38,0,2.31,2.31,0,0,0-.59.1l-.33,0a1.83,1.83,0,0,0-1.27.11c-.1,0-.2.06-.12.07l-1.16-.12-1.33-.12-.7.06-.28,0-.32-.07a5.29,5.29,0,0,0-1-.12,1.21,1.21,0,0,0-.6.06l-.28,0-.08.11-1.16-.1-1.84.08h-.11l-.51-.35-.61.2a.94.94,0,0,0-.43-.1l-1,.19-.19.43a.74.74,0,0,1-.23.29l-.32.27v.42a10.19,10.19,0,0,1-.1,1.42,1.22,1.22,0,0,1-.06.27,1.53,1.53,0,0,0-.08.47,1.88,1.88,0,0,0,.17.75c0,.12-.06.29-.09.44a2.93,2.93,0,0,0-.12.8,1.28,1.28,0,0,0,.12.61,1.4,1.4,0,0,0-.18.75l.07.56-.07.93a1,1,0,0,0,.23.63,5.88,5.88,0,0,0-.11.68,2.58,2.58,0,0,0-.06.81,5.08,5.08,0,0,0,0,.59c0,.17.05.34.08.5l-.18.19.13.49c0,.1,0,.18,0,.16l-.06.29a3.43,3.43,0,0,0-.11.7,6.33,6.33,0,0,0,.06.86c0,.11,0,.24,0,.37l-.07,1a5.41,5.41,0,0,0,.18,1.55c0,.16.07.3.12.44a2.83,2.83,0,0,0-.17.85c0,.09,0,.19,0,.31a.61.61,0,0,1,0,.18,2.42,2.42,0,0,0-.09.43,1.72,1.72,0,0,0,0,.42,2.26,2.26,0,0,0,0,.47c0,.14,0,.3.07.47a1.88,1.88,0,0,1,.06.34c0,.08,0,.3-.06.52s-.08.74-.08.82a7.44,7.44,0,0,0,.16,2.31,2.3,2.3,0,0,0-.24.52,1.88,1.88,0,0,0,0,.63v.13l-.07.19a3.12,3.12,0,0,0,0,.65l-.12.25v.21a11.45,11.45,0,0,0,.2,1.53s0,0,0,.06a1.27,1.27,0,0,0,0,.34v.28l0,0a2.45,2.45,0,0,0,0,.79h0l-.12.92a3.16,3.16,0,0,0,.2.81,1.33,1.33,0,0,0,1.14.86h1.42v-.19a1.07,1.07,0,0,0,.25,0l.31-.1.14,0,.35.1.31-.1a1,1,0,0,1,.21,0,3.79,3.79,0,0,0,1,0c.33,0,.75,0,1.15,0a8.42,8.42,0,0,1,1.15,0A1,1,0,0,0,176.73,200.19Z"/><path d="M207.16,199.51a1.68,1.68,0,0,0,.45,0l.72.12.59-.06a2.62,2.62,0,0,0,.41-.45l.11-.1a1.32,1.32,0,0,0,.69-.46,2.85,2.85,0,0,1,.24-.22,2.47,2.47,0,0,0,.56-.56,1.8,1.8,0,0,0,.12-1.16,4.86,4.86,0,0,0,.39-1.65.71.71,0,0,0-.12-.43,2.76,2.76,0,0,1,0-.74,2.6,2.6,0,0,0,.11-.72l-.09-.45a4.1,4.1,0,0,1-.15-.61,3.64,3.64,0,0,1,.05-.45l.06-.38a2.75,2.75,0,0,0,.09-.93,1.94,1.94,0,0,0-.15-.51,2.42,2.42,0,0,0,.12-.78,1,1,0,0,0-.05-.57l-.16-.31V188a2.19,2.19,0,0,0-.15-1.15,5.5,5.5,0,0,0-1.43-1.54l-.26-.25a1.92,1.92,0,0,0-.52-.5l-.3-.12a2.34,2.34,0,0,1-.4-.11l-.07,0a1.53,1.53,0,0,0-.5-.45,1.89,1.89,0,0,0-.65-.26,1.83,1.83,0,0,0-.35-.31c-.12-.11-.29-.23-.45-.35l-.2-.14,0-.22-.4-.45a5.67,5.67,0,0,0-.81-.37l-.33-.13-.25-.14c-.2-.09-.29-.14-.33-.21l-.14-.19-.21-.1c-.13-.06-.24-.1-.28-.08a3.09,3.09,0,0,1-.28-.31,3.26,3.26,0,0,0-.61-.62,4,4,0,0,0-.92-.39l-.36-.12a3,3,0,0,0-.37-.38,1.08,1.08,0,0,0-.36-.15l-.14-.18-.31-.2-.38-.14a2.45,2.45,0,0,0-.48-.41,2.82,2.82,0,0,0-.6-.2c-.12,0-.23-.05-.17,0a1.69,1.69,0,0,1-.19-.28,2.51,2.51,0,0,0-.6-.71,4.74,4.74,0,0,0-.92-.5,1.63,1.63,0,0,1-.32-.45c0-.1,0-.21,0-.32A2.86,2.86,0,0,0,196,175a2.84,2.84,0,0,1,0-.47v-.2a1.89,1.89,0,0,0,0-.54c0-.14,0-.18,0-.24a1.81,1.81,0,0,0,0-.37c0-.27-.07-.61-.11-.85l.06-.4a1.31,1.31,0,0,0,0-.48c0-.06,0-.13,0-.21h.85c.24,0,.93.11,1,.11a2.57,2.57,0,0,0,.57-.09,2.51,2.51,0,0,1,.56-.11.9.9,0,0,1,.27.08,4.66,4.66,0,0,0,2.65-.09,7.69,7.69,0,0,0,.94.27l.23,0,.32-.1.4.12.28.14.3-.06.63-.12a1.61,1.61,0,0,0,.28.12l.14.14.25.29a3.48,3.48,0,0,0,.47.5,1.66,1.66,0,0,0,.62.36l.06.12c.17.33.26.5.32.6v0a2.7,2.7,0,0,0,.05.43v.46a6,6,0,0,0,.14.85,1.42,1.42,0,0,1,0,.37,1.47,1.47,0,0,0,.3,1.41,5.45,5.45,0,0,0,.84.9l.33.21.35,0,.26,0a1.56,1.56,0,0,0,1.74-.88l.08-.38s0-.07,0-.14a1.74,1.74,0,0,0,.05-.85v-.36a1.27,1.27,0,0,0,.14-.6,2.47,2.47,0,0,0,0-.5l-.1-1v-.79l-.08-.13a1.77,1.77,0,0,0-.32-.61c-.09-.09-.2-.18-.31-.27a1.22,1.22,0,0,1-.26-.28l-.23-.55h-.23l-.4-.49h-.21l-.1-.11a3.78,3.78,0,0,0-.58-.86l-.12-.17a3.86,3.86,0,0,0-.54-.6,3.3,3.3,0,0,0-.81-.47l-.09,0a3.73,3.73,0,0,0-.84-.46l-.21,0h-.16a1.56,1.56,0,0,1-.45-.09,1.92,1.92,0,0,0-.5-.08l-.66.13h-.7a1.55,1.55,0,0,0-.56-.1,10.61,10.61,0,0,0-1.36,0c-.21,0-.43.08-.59.12l-.09,0-.17,0a2.75,2.75,0,0,0-.64-.11,5.05,5.05,0,0,0-.85.13,2.15,2.15,0,0,0-.62-.13c-.25,0-1.46,0-2,.07a1.94,1.94,0,0,0-.64.07,4.19,4.19,0,0,0-.8-.14h-1.4l-.27,0a2.5,2.5,0,0,0-1,.63l-.27.28v.38a2,2,0,0,1,0,.34,3.19,3.19,0,0,0-.06.59,1.27,1.27,0,0,0,0,.2,1.35,1.35,0,0,0-.22.69l.13.68-.09.24.13,1.58-.11.18-.16,1.56H192a3.28,3.28,0,0,0-.06.66v.36a3.87,3.87,0,0,0,.21,1.6,3.91,3.91,0,0,0,.92,1.54,2,2,0,0,0,1,.45,2.33,2.33,0,0,0,.69.25,2,2,0,0,0,.28.39,1.81,1.81,0,0,0,.76.4l.07.09c.22.3.39.54.59.6a1.48,1.48,0,0,0,.76.2,2.21,2.21,0,0,1,.28.26,1.14,1.14,0,0,0,.26.41l.83.38a3.39,3.39,0,0,0,.45.15,2.87,2.87,0,0,0,.73.51h0a2.19,2.19,0,0,0,.72.93,2,2,0,0,0,.76.31.91.91,0,0,1,.25.07,2.9,2.9,0,0,0,.46.25l.37.21.15.13.14.11a2,2,0,0,0,1.13,1l.17,0,0,0a1,1,0,0,0,.37.15,1.22,1.22,0,0,0,.28.25l.37.18,0,.06a2.2,2.2,0,0,0,.37.4,1.82,1.82,0,0,0,.44.32,1.88,1.88,0,0,0,.62.61.45.45,0,0,0,.32.07,3.54,3.54,0,0,1,.37.45c.17.34.3.71.32.71h0l0,.19a3.49,3.49,0,0,0-.14.78,1.54,1.54,0,0,0,.27.8v0a1.23,1.23,0,0,0-.14.55,3.2,3.2,0,0,0,.11.73.69.69,0,0,1,0,.33,1.62,1.62,0,0,0-.25.75,1.77,1.77,0,0,0,.08.73,1.88,1.88,0,0,0-.18.59,2.47,2.47,0,0,0,0,.67l-.08.09a5.64,5.64,0,0,1-.71.18l-.11,0a2.73,2.73,0,0,0-.71-.15h-.76a1.06,1.06,0,0,0-.61.2h0a2.32,2.32,0,0,0-.69-.16l-.7.08a1.54,1.54,0,0,0-.37,0,1.15,1.15,0,0,0-.31.11,1.58,1.58,0,0,0-1.19-.16l-.3,0a2.17,2.17,0,0,0-1.19.1,1.21,1.21,0,0,0-.64-.2c-.14,0-.27,0-.6.06l-.25,0a3.25,3.25,0,0,0-.44.05c-.17,0-.62.08-.66.1s-.49-.47-.69-.66-.55-.49-.77-.67a1.88,1.88,0,0,0-.43-.81l-.45-.47-.11-.18a2.87,2.87,0,0,0,0-.38v-.54c-.06-.43-.15-1.09-.17-1.2a4.94,4.94,0,0,1,.13-.48l-.14-.28,0-.62v-.77c0-.06,0-.13,0-.18a2.26,2.26,0,0,0,.08-.53v-.25l-.12-.22a.75.75,0,0,1-.08-.18,3.73,3.73,0,0,0-.2-.4l-.14-.18-.27-.3c-.14-.17-.29-.33-.35-.39l-.35-.39-.51.15-.26,0a1.5,1.5,0,0,0-1.69.85l-.09.25-.2.29v.63a2.15,2.15,0,0,0,.17.73v.87l.07.09a2.35,2.35,0,0,0-.07.78v1.83l.11.89-.17.81.22.33a5.58,5.58,0,0,0,.33.45c.09.08.19.17.31.26a.85.85,0,0,1,.14.11l.35.73h.3a1.53,1.53,0,0,0,.54.61,2.6,2.6,0,0,1,.51.46,3.76,3.76,0,0,0,.59.88,5.07,5.07,0,0,0,.66.78,2.83,2.83,0,0,0,.77.43l.26.13a2.64,2.64,0,0,0,.71.4l.23.08.23-.05.57-.14.18-.05a2.92,2.92,0,0,0,.31.18l.37.18.7-.3.21,0c.12,0,.29.13.4.18l.26.13.53-.08.33-.06.46.08c.31.05.63.1.72.1a2.11,2.11,0,0,0,.71-.17c.08,0,.15-.06.12-.07l.36.07a4.16,4.16,0,0,0,.63.1,1.27,1.27,0,0,0,.63-.19h.05l.41.09a1.67,1.67,0,0,0,1.35-.07l.13,0a1.44,1.44,0,0,0,.37.13l.13,0h.13a4.09,4.09,0,0,1,.6,0Zm2.1-27.94h0l0,.12h0ZM192.31,195l.05-.1h0l0,.1Z"/><path d="M39.68,220.42c0-.1,0-.21,0-.28l.08-.31-.11-.28a1.27,1.27,0,0,1,0-.18,1.52,1.52,0,0,0,0-.23c0-.14,0-.34,0-.53a2,2,0,0,0,0-.31s0-.07,0-.11v-1c0-.17,0-.36,0-.74V214a1.11,1.11,0,0,0,0-.19.81.81,0,0,0,.06-.55l-.07-.39,0-.39,0-.35,0-.31,0-.33.06-.38a1.21,1.21,0,0,0-.39-.85,1.07,1.07,0,0,0-.19-.18.87.87,0,0,0-.16-.23l-.49-.45a.93.93,0,0,0-.34-.23l-.07-.08a2.91,2.91,0,0,0-.24-.27.77.77,0,0,0-.22-.16.68.68,0,0,0-.19-.26.91.91,0,0,0-.36-.29,2,2,0,0,0-.39-.45,1.73,1.73,0,0,0-1-.39l-.21-.1-.78,0a1.64,1.64,0,0,0-.49.1l-.28,0-.32.06a1.81,1.81,0,0,1-.37,0,1.7,1.7,0,0,0-.45,0,2.36,2.36,0,0,0-.33.07h-.36a1.57,1.57,0,0,0-.3-.05h-.5l-.45,0h-.17l-.37-.13-.27.4a1.32,1.32,0,0,0-.44.59,1,1,0,0,0,0,.57l-.05.33a4.29,4.29,0,0,0,.07.63l0,.11,0,.26,0,.23a.88.88,0,0,0,0,.46,1,1,0,0,0,.08.31l0,.15.08.42v.12l0,.43-.15.69.1.25,0,.2a1.15,1.15,0,0,0,0,.19.84.84,0,0,0,0,.45v.25l0,.07a1.88,1.88,0,0,0,0,.19l-.05.35a.86.86,0,0,0,0,.28.14.14,0,0,0,0,.07l-.07.21.08.2a.5.5,0,0,0,0,.12l-.07.46.06.06a.54.54,0,0,0,0,.11,2.2,2.2,0,0,0-.08.58l0,.6,0,0-.08.21.15.34s0,0,0,0l0,.16c-.07.33-.13.78-.13.82a1.76,1.76,0,0,0,.06.38,1.05,1.05,0,0,0,0,.36,1.33,1.33,0,0,0-.05.34l0,.29-.07.32.12.24a1.67,1.67,0,0,0,0,.34,3.77,3.77,0,0,0,0,.44,1.92,1.92,0,0,1,0,.35l-.06.38a1,1,0,0,0,0,.25.54.54,0,0,0,0,.19l0,.08a2.47,2.47,0,0,0-.08.59l-.11.32.13.31a1.14,1.14,0,0,0,1.13.74c.18,0,.34,0,.47,0h.5L32,225a.77.77,0,0,0,.33.06H33l.69,0,1,.06V225h.08a2.09,2.09,0,0,0,.52-.09l.35-.07.15-.09a1.28,1.28,0,0,0,.3-.25l.26-.23.24-.16a1.08,1.08,0,0,0,.28-.3l.16-.13.45-.41.24-.24a2.45,2.45,0,0,0,.41-.29,3.47,3.47,0,0,0,.25-.29,1,1,0,0,1,.21-.21c.11-.09.22-.18.3-.26s.2-.25.17-.26l.49-.34.08-.27A3.48,3.48,0,0,0,39.68,220.42Zm-2.42-9.59-.22.36-.09,0,.31-.33Zm-.72,9.68-.43.25-.14.14-.27.28-.2.21a1.59,1.59,0,0,1-.17.18l-.53.52h-.08l-.19.07-.22.09-.28,0-.69.09-.41.06h-.41v-.43a1.06,1.06,0,0,0-.1-.46v-.4a2,2,0,0,1,0-.26,4.93,4.93,0,0,0,.05-.5v-.07l0,0,0-.56a1.13,1.13,0,0,0,.08-.4l0-.34-.12-.15v-.08a.79.79,0,0,0,0-.14,1.68,1.68,0,0,0,.08-.36,3.15,3.15,0,0,0,0-.53c0-.15,0-.32,0-.42l.24-.48-.23-.34v-.18c0-.16-.05-.48-.05-.55a1.27,1.27,0,0,1,0-.22l.18-.36-.14-.38a1,1,0,0,1,0-.13l.12-.16v-.35a1.22,1.22,0,0,0-.07-.37l0-.45-.07-1a1.18,1.18,0,0,0,.12-.49l-.1-.43c0-.12,0-.24,0-.34l0-.17.11-.14v-.37l.21-.16-.08-.22,1.48-.11.29,0,.3,0a.46.46,0,0,1,.21.12,3,3,0,0,0,.3.28,2.29,2.29,0,0,1,.23.21l.36.38a2.71,2.71,0,0,0,.41.35l0,0,.06.07.18.19.27-.29c0,.14-.06.25-.08.34l-.06.1,0,0v.11a1.12,1.12,0,0,0,.11.47l-.13.3.14.5a.06.06,0,0,0,0,0l0,.59a1.87,1.87,0,0,0,0,.32,2.78,2.78,0,0,0,0,.5,1,1,0,0,1,0,.24l0,.21a2.83,2.83,0,0,0,0,.41,1.17,1.17,0,0,0,0,.29,2.39,2.39,0,0,0,0,.43l0,.52c0,.08,0,.13,0,.2l0,.26,0,.22-.11.2V218c0,.15,0,.28,0,.44a2.88,2.88,0,0,0,0,.42v.41a.88.88,0,0,0,0,.24l-.09.31,0,.07V220l.07.2a2.33,2.33,0,0,1-.26.21C36.55,220.45,36.48,220.5,36.54,220.51Zm-6.05-3.61h0Zm8.32-.44h0l.3-.08.09.06Z"/><path d="M51.81,224.49l.45.33.44-.55a1,1,0,0,0,.52-.81,1,1,0,0,0-.2-.77l-.05-.14c0-.15-.12-.32-.21-.53a1.22,1.22,0,0,0-.18-.5l-.08-.18a1.35,1.35,0,0,0-.12-.53,1.21,1.21,0,0,0-.14-.22l0-.29a1.87,1.87,0,0,0-.13-.49c0-.1-.12-.2-.24-.4h0v0l0-.22-.13-.22a2.11,2.11,0,0,0-.13-.31l0,0a1.11,1.11,0,0,0,0-.17l-.12-.32h0a.86.86,0,0,0-.07-.25l-.14-.24a2.81,2.81,0,0,0-.13-.45L51,217a2.84,2.84,0,0,0-.17-.64c0-.1-.09-.18-.15-.3l-.23-.8-.11-.11,0-.12c0-.16-.09-.31-.13-.42a2.43,2.43,0,0,0-.2-.36.93.93,0,0,1,0-.22c0-.13-.05-.25-.06-.27a4.18,4.18,0,0,0-.25-.75,1.26,1.26,0,0,0-.15-.33l0-.24-.1-.13a3.23,3.23,0,0,0-.27-.52,2.2,2.2,0,0,0-.17-.73c-.08-.14-.17-.24-.32-.47a3.56,3.56,0,0,0-.2-.42l-.07-.1a1,1,0,0,0-.06-.16l0-.2c0-.18-.09-.35-.17-.6l-.06-.13a1.07,1.07,0,0,0-.06-.29l0-.09-.51-.53a1.46,1.46,0,0,0-.69-.22,1.29,1.29,0,0,0-1.18.88l-.12.3V209l-.17.13v.38a1.51,1.51,0,0,0-.32.53v.11a1.36,1.36,0,0,0-.16.32,1.23,1.23,0,0,0-.14.54v0l0,.06-.09.18a2.1,2.1,0,0,0-.28.43c0,.08-.07.22-.15.5a4.49,4.49,0,0,0-.18.43,1,1,0,0,0-.09.37,1.49,1.49,0,0,0-.38.69v0l-.23.6a2,2,0,0,1-.09.29l-.08.22L43,215l-.22.44a.72.72,0,0,0-.05.29,1,1,0,0,0-.18.27c-.09.19-.11.36-.09.34a1.4,1.4,0,0,0-.16.29l-.32.61a2,2,0,0,0-.12.4l-.06.09-.56.84.17.09-.18.45a.5.5,0,0,0,0,.12l-.22.14-.12.32a1,1,0,0,0-.08.45,2.63,2.63,0,0,0-.2.38.64.64,0,0,0-.06.28l-.34.71,0,.16-.17.28a1,1,0,0,0-.08.26l-.17.22a1.81,1.81,0,0,0-.25.89v.38l.16.34.31.16.14.08,0,0a1.31,1.31,0,0,0,.74.23,1.22,1.22,0,0,0,.88-.43l.29-.32a2.75,2.75,0,0,0,.26-.67,1.73,1.73,0,0,0,.17-.36l.24-.55a1.15,1.15,0,0,0,.06-.17l.2-.21v-.38l.07-.14a1.4,1.4,0,0,0,.25-.56l.62-1.09-.12-.06,0-.09a.56.56,0,0,0,.07-.27,1,1,0,0,0,.22-.42l0-.09a1,1,0,0,0,.11-.19,1.51,1.51,0,0,0,.1-.32l.15-.23a1.17,1.17,0,0,0,.11-.3l0-.07a2.86,2.86,0,0,0,.2-.44A.77.77,0,0,0,45,217l.15-.25a1.06,1.06,0,0,0,.11-.33.66.66,0,0,0,.2,0,1.59,1.59,0,0,0,.57-.11l.25.05a.72.72,0,0,0,.42,0c.11,0,.34,0,.63,0s.27,0,.58-.05l.2,0,.07,0,0,0a2.75,2.75,0,0,1,0,.4l.34.92.12.54.18.12a.43.43,0,0,0,0,.05l0,.35.18.23,0,.37.18.19.11.36a2.37,2.37,0,0,0,.15.32c0,.08.07.15.09.2l.16.84.17.13.07.15c0,.14.07.3.12.46a.58.58,0,0,0,.05.14v0l0,.18a.73.73,0,0,0,.14.34,1.63,1.63,0,0,0,0,.33,1.76,1.76,0,0,0,.25.57,1.3,1.3,0,0,0,1.11.85Z"/><path d="M75.23,236.31l-.21-.83-.38-.19,0,0a1.15,1.15,0,0,0,0-.18l-.08-.54-.27-.27-.18-.42-.19-.08a3.18,3.18,0,0,0,0-.62v-.48l-.41-.28a2.05,2.05,0,0,1-.29-.25,1.29,1.29,0,0,1-.06-.36l.09-.52-.54-.25a1.27,1.27,0,0,1-.1-.57v-.26l-.47-.73-.25-.36V229a1.22,1.22,0,0,0-.35-.89,1.34,1.34,0,0,0-.05-.3,1.41,1.41,0,0,0-.18-.41V227l-.17-.24a2.38,2.38,0,0,1-.14-.23,2,2,0,0,0-.08-.49q-.06-.15-.12-.27v-.4l-.38-.36a2,2,0,0,0-.28-.72l0-.13a1.24,1.24,0,0,0-.29-.52l.08-.22-.17-.34c-.06-.13-.14-.26-.21-.39l-.45-1v-.08a1.13,1.13,0,0,0-.14-.53v-.61l-.34-.2-.1-.5-.14-.16v-.45l-.2-.25a1.2,1.2,0,0,1-.21-.39,4.21,4.21,0,0,0-.55-1l.23-.34-.51-.61a5.54,5.54,0,0,1-.17-.74v-.28l-.15-.23a2.27,2.27,0,0,1-.39-1l0-.14-.43-1,0-.43-.1-.19a2.34,2.34,0,0,1-.16-.34,2.06,2.06,0,0,0-.44-.94,3.26,3.26,0,0,1-.06-.58,1.72,1.72,0,0,0-.38-.84.22.22,0,0,1,0-.08c0-.14,0-.28,0-.38l.05-.58-.36-.25A1.64,1.64,0,0,0,63,207.48a1.41,1.41,0,0,0-.65.13l-.16.08a1.19,1.19,0,0,0-.47.25,1.41,1.41,0,0,0-.57,1.11l0,.08.07.13a3.37,3.37,0,0,1-.23.44l-.19.25v.33a1.33,1.33,0,0,0-.54,1.24,3.7,3.7,0,0,0,0,.45l-.1.19v.22s0,.06,0,.09l-.21.21v.2l-.08.09-.11.18a3.85,3.85,0,0,0-.43,1.23h0l-.32.3-.07.21a1.51,1.51,0,0,0-.07.37,1.66,1.66,0,0,0-.3.34l-.16.23v.48a4.12,4.12,0,0,0,0,.48,1.48,1.48,0,0,1-.11.22l-.11.2v.23c0,.07,0,.14,0,.22a1.41,1.41,0,0,0-.42,1l-.45.25v.53a2,2,0,0,0,.05.45,1.19,1.19,0,0,0-.35.86l0,.26-.06.1-.14.29-.11.41a2.45,2.45,0,0,0-.42.81l0,.29a1.59,1.59,0,0,0,.06.37l0,.1-.16.56c0,.13,0,.3,0,.43l-.08.06-.26.2-.08.32a2.39,2.39,0,0,0-.07.35,1.23,1.23,0,0,0-.41.46l-.16.3.09.33a1.47,1.47,0,0,0,.08.25,1,1,0,0,0-.27.43l0,.28a3.21,3.21,0,0,1-.1.52l0,.47c0,.06,0,.12,0,.18l-.05,0-.17.24c-.06.13-.07.15-.35.32l-.38,1.08a1,1,0,0,1,0,.14l-.1.05v.57a6.27,6.27,0,0,1-.53.6l-.4.43.21.54,0,.05a2.17,2.17,0,0,0-.25,1,1.09,1.09,0,0,0,0,.18.59.59,0,0,0,0,.13l-.51.56.1.15a1.09,1.09,0,0,0-.44.86,2.13,2.13,0,0,0,0,.41l-.41.46.14.28a1,1,0,0,0-.08.21l-.15.42.07.07a1.16,1.16,0,0,0-.15.56l.12.67a1.76,1.76,0,0,0,.85.89l.24.11a2.59,2.59,0,0,0,.84.2,2,2,0,0,0,1.2-.47,2.64,2.64,0,0,0,.51-.84,2.2,2.2,0,0,0,.05-.44,1.55,1.55,0,0,0,.25-.4,3.72,3.72,0,0,0,.24-1,3.9,3.9,0,0,1,.1-.82,2.35,2.35,0,0,0,.63-.73l.09-.32a8,8,0,0,1,.16-.9,2.56,2.56,0,0,0,.46-1.24v0a2.23,2.23,0,0,0,.37-.62l0-.29a2.2,2.2,0,0,0,0-.44c0-.09.07-.18.1-.25a3,3,0,0,0,.12-.4.59.59,0,0,1,.28-.3l.33-1.21c0-.1,0-.22.06-.38s.23-.32.34-.49l.21-1.11c.09-.24.13-.5.22-.77l.15-.26a1.36,1.36,0,0,0,.23-.73v-.11l0-.13c0-.06,0-.13,0-.14a1.8,1.8,0,0,0,.12-.35l.39-.07v-.92a2.3,2.3,0,0,1,.08-.27,3.73,3.73,0,0,0,.2-.4c0-.08.07-.16.1-.21a1.48,1.48,0,0,1,.42-.36l.54.06.73.07a1.68,1.68,0,0,0,.55-.11l.09,0,.25.08.47-.12a1.63,1.63,0,0,0,1.45.18l.29.05.06.1.16.24a1.14,1.14,0,0,0,.19.23c0,.07,0,.16,0,.3a1.59,1.59,0,0,0,.15.42l.18.7h.15a.8.8,0,0,0,.26.42v.25a2.33,2.33,0,0,0,.51,1.07v.12c0,.46.17.75.68,1.4l-.09.35.32.36a1.52,1.52,0,0,1,.2.29,1.25,1.25,0,0,0,0,.21l0,.22a1.39,1.39,0,0,0,.21.44,2.42,2.42,0,0,1,0,.57v.38l.27.27a1.06,1.06,0,0,0,.2.17c0,.15,0,.31.09.51a1.2,1.2,0,0,0,.44.58l.06.37a1.52,1.52,0,0,0,.3.59c0,.11,0,.21,0,.24a3.18,3.18,0,0,0,.84,2,.8.8,0,0,1,0,.23l0,.22a1,1,0,0,0,.33.54,4.62,4.62,0,0,0,.39,1.19,1.78,1.78,0,0,0,0,.46l.06.23,1.06,1.07.56-.18a2.61,2.61,0,0,1,.68.05,2.71,2.71,0,0,0,.59.08l.32-.05,1-.62v-.45a3.11,3.11,0,0,1,.14-.64l.11-.37-.2-.34A1.69,1.69,0,0,0,75.23,236.31Zm-22.6.48Zm15.83-9.19h0Zm1.92,4.89Z"/><path d="M104.59,214.9l.13-.51-.28-.27a3.3,3.3,0,0,1-.06-.71v-.13l.24-.18v-.52l0-.26a2.83,2.83,0,0,1-.07-.36l0-.18,0-2.53,0-.09a1.76,1.76,0,0,0,.07-.45,1.46,1.46,0,0,0-.46-1.18,1.94,1.94,0,0,0-1.52-.63c-.08,0-.41,0-.8.1l-.77.12a1.16,1.16,0,0,0-.64,0,3.75,3.75,0,0,1-.68.08,1.57,1.57,0,0,0-1.49.75l-.1.31a21.05,21.05,0,0,1-.4,2.58,2.34,2.34,0,0,1-.41.72l-.11.25a4.22,4.22,0,0,0-.15.83c0,.13,0,.27,0,.41a2.14,2.14,0,0,1-.12.36l-.06.23c0,.08,0,.23,0,.2l-.17.18-.36.64a3,3,0,0,0-.21.93.93.93,0,0,0,0,.42,2.45,2.45,0,0,1-.22.29,3.12,3.12,0,0,0-.47.71l-.17.34.06.16,0,.12a1.64,1.64,0,0,0-.09.71l-.16.19-.07.25a.81.81,0,0,1-.14.28l-.31.36.12.45c0,.09,0,.18,0,.26s0,0,0,.07a1.35,1.35,0,0,0-.08.24,1.31,1.31,0,0,0-.23.49,1.65,1.65,0,0,0,0,.23h0l-.27.27v.41a1.53,1.53,0,0,0-.43.75v.35l-.12.18a1.2,1.2,0,0,0-.17.63l-.08.15a1.59,1.59,0,0,0-.14.65s0-.05,0-.05a2.77,2.77,0,0,0-.35.55l-.11.25.05.27a1,1,0,0,1,0,.28l-.35.36v.57a.41.41,0,0,0,0,.11,1.8,1.8,0,0,0-.35,1V228a2.66,2.66,0,0,0-.59,1,.76.76,0,0,1-.08.21l-.1.19A2.07,2.07,0,0,0,91,230v0a2.38,2.38,0,0,0-.13-.29c0-.07-.09-.16-.08-.11a1.34,1.34,0,0,1,0-.2,3,3,0,0,0-.09-.69,1.86,1.86,0,0,0-.41-.69,1.22,1.22,0,0,0,0-.41,1.11,1.11,0,0,0-.43-.63,1.21,1.21,0,0,0,0-.76,4.87,4.87,0,0,1-.17-.56.83.83,0,0,0-.23-.4v-.69l-.19-.25a1.72,1.72,0,0,1-.15-.21l0-.4-.28-.3,0-.7-.13-.22a4.27,4.27,0,0,0-.32-.45l.11-.26-.43-.52v-.19a2.25,2.25,0,0,0,0-.69,2.43,2.43,0,0,0-.32-.77,1.69,1.69,0,0,0-.17-.29l.18-.44-.27-.41a2.59,2.59,0,0,0-.19-.23,2.74,2.74,0,0,0-.27-1.17,1,1,0,0,0-.35-.41,1.49,1.49,0,0,0,0-.52,1.23,1.23,0,0,0-.49-1.05.78.78,0,0,0,0-.09l.06-.3-.14-.28c0-.1-.09-.2-.13-.3s-.12-.3-.2-.47,0-.21,0-.29l-.12-.46-.19-.18a1.92,1.92,0,0,0-.13-.43l-.11-.21a1.88,1.88,0,0,1-.2-.52,2.05,2.05,0,0,0-.07-.55l-.12-.25a1.25,1.25,0,0,0-.09-.12l.22-.32-.32-.5a3,3,0,0,1-.32-.79,1.79,1.79,0,0,0-.3-.7,3.31,3.31,0,0,0-.22-.39l-.25-.25a3.34,3.34,0,0,0-.63-.31l-.38-.11-.2.1h0a2.55,2.55,0,0,1-.59,0,1,1,0,0,0-.55-.15,3.35,3.35,0,0,0-.63,0h-.1c-.2,0-.41-.06-.6-.09L79.4,207l-.18,0-.17.05a1.52,1.52,0,0,0-.63.37,1.37,1.37,0,0,0-.75.71,2.08,2.08,0,0,0-.1.88,1.86,1.86,0,0,1,0,.36,3.7,3.7,0,0,1-.06.41,4.45,4.45,0,0,0-.08.55,1.35,1.35,0,0,0,.06.4h0v.14a7.58,7.58,0,0,1-.09,1.68c0,.27,0,.47,0,.59a5.68,5.68,0,0,0,.2,1.2,3.73,3.73,0,0,0-.2.8c0,.37,0,.92,0,1.28a10.39,10.39,0,0,1-.13,1.11l-.07.46.09.23-.07.78a3,3,0,0,0,.07.63,3.06,3.06,0,0,0,.06.69,2.14,2.14,0,0,0,.11.31l0,.09a1.94,1.94,0,0,0-.17.68,3.68,3.68,0,0,0,0,.45c0,.18,0,.4.05.58l-.2.1.21.74a2.56,2.56,0,0,1,.07.3,1.71,1.71,0,0,0-.17.75,1.58,1.58,0,0,0,.16.63l-.06.23-.06.26-.06.31a7,7,0,0,0-.08,1.21c0,.11,0,.56,0,1.08a2.58,2.58,0,0,0,.09.35,1.46,1.46,0,0,0-.06.54,3.3,3.3,0,0,1,0,.43,3.56,3.56,0,0,0-.11.62V230a1.22,1.22,0,0,0-.11.49,3.72,3.72,0,0,0,.11.76,3.25,3.25,0,0,0,.17.46l0,.07a3.5,3.5,0,0,0-.09,1.32c0,.14,0,.29,0,.44a1.88,1.88,0,0,1-.11.69l0,.34v.87c0,.21.07.33.09.49l0,.2a2,2,0,0,0-.1.42,2.59,2.59,0,0,0,0,.64c0,.06,0,.13,0,.09s0,.23,0,.35a4.25,4.25,0,0,0-.08.9,3.13,3.13,0,0,0,.21.74l.08.42.38.21a3.21,3.21,0,0,0,1.3.42,2.21,2.21,0,0,0,1.51-.72l.3-.27.07-1.19c0-.08,0-.61-.11-1.16s-.13-1.18-.13-1.28l0-.33,0-.23a3.86,3.86,0,0,0,.1-.6v-.79a.94.94,0,0,0-.21-.51,1.67,1.67,0,0,0,.14-.76l0-.19a.88.88,0,0,1,0-.16,1.16,1.16,0,0,0,.19-.61v-1.16l-.21-.1a1.42,1.42,0,0,0,.1-.57,2.08,2.08,0,0,0-.1-.52,1.55,1.55,0,0,0,0-.43.87.87,0,0,0-.09-.42.85.85,0,0,1,.09-.22l.17-.24v-.29a1.24,1.24,0,0,0-.19-.67h0a1.07,1.07,0,0,0,.11-.67l0-.34a5.92,5.92,0,0,1-.08-1v-.09a1.47,1.47,0,0,0,.1-.13l.18-.26-.13-1.36.12-.9-.07-.2a2.34,2.34,0,0,0-.09-.24,3.11,3.11,0,0,0,.11-.46l-.07-.34,0-.06,0-.13v-.21l0-.21a5.3,5.3,0,0,0,.06-2.36,3.45,3.45,0,0,0,0-.53,2.23,2.23,0,0,0-.08-.56l.11-.35a1.75,1.75,0,0,0-.14-1,1.43,1.43,0,0,1,.09-.2,1.63,1.63,0,0,0,.22-.87l-.09-1.31.1-.68-.1-.43-.07-.09a1.51,1.51,0,0,0,.1-.37,1.92,1.92,0,0,0,.41.77v0l0,.28a2.29,2.29,0,0,0,.19.56,1.4,1.4,0,0,1,.1.25,1.9,1.9,0,0,1,0,.25,3.09,3.09,0,0,0,.11.62,1,1,0,0,0,.28.49l0,.24.1.24a1.52,1.52,0,0,0,.43.59.45.45,0,0,1,.06.12,4.37,4.37,0,0,0,0,.67l0,.47.23.26a2.4,2.4,0,0,0,.13.32.77.77,0,0,0,0,.15l-.17.49.47.41a1.17,1.17,0,0,0,.12.51,1.14,1.14,0,0,0,.23.31,1.64,1.64,0,0,0,0,.41l.06.34a1.73,1.73,0,0,0,.33.5v.26a1.93,1.93,0,0,0,.17.5l.12.24v0a2.91,2.91,0,0,0,.49,1.64l.07.08-.13.38.35.57h0a2.53,2.53,0,0,0,.39,1.38,1.8,1.8,0,0,0,.19.2v.19a2,2,0,0,0,0,.35l-.09.36.19.32a2,2,0,0,0,.36.45,2.18,2.18,0,0,0,.2.88,1.8,1.8,0,0,0,.24.6,1.29,1.29,0,0,0,0,.54l0,.21.23.18a1.48,1.48,0,0,1,.11.29,2.38,2.38,0,0,0,.33.77,3.13,3.13,0,0,0,.12.54,1.09,1.09,0,0,0,.16.44,1.29,1.29,0,0,0,0,.65,3.19,3.19,0,0,0,.36.82,1.56,1.56,0,0,0,.14.48l.22.51a1.63,1.63,0,0,1,.11.23,1.09,1.09,0,0,0,0,.64l.06.15a1,1,0,0,0,0,.39,2.59,2.59,0,0,0,.27.72l0,.26a2.06,2.06,0,0,0,.12.53,2.76,2.76,0,0,0,.53.91l.17.4H90a4.93,4.93,0,0,0,.75,0h.31l.24-.18a8.73,8.73,0,0,0,.82-.7l.27-.27v-.38a1.84,1.84,0,0,0-.07-.47c0-.15.11-.31.16-.48l.13-.39a5.29,5.29,0,0,1,.22-.53,5.21,5.21,0,0,0,.29-.83,1.22,1.22,0,0,0,0-.57l.09-.23a3.25,3.25,0,0,1,.28-.66,1.82,1.82,0,0,0,.38-.56,2.19,2.19,0,0,0,.12-.87,3.86,3.86,0,0,1,.18-.71c0-.1.08-.22.12-.34a1,1,0,0,1,.18-.34,1.93,1.93,0,0,0,.48-.66l.1-.28-.07-.21a1.32,1.32,0,0,0,.09-.39,1.17,1.17,0,0,1,.22-.71l.63-.43v-.46a1.35,1.35,0,0,0,0-.31l.14-.35a1.48,1.48,0,0,0,.09-.51l.16-.18a3,3,0,0,0,.16-.26l.27-.27v-.8a2,2,0,0,0,0-.25,1.25,1.25,0,0,0,.1-.31l.23-.22v-.3l.31-.21v-.55a1.19,1.19,0,0,0,.18-.15l.26-.27V222a1.7,1.7,0,0,0-.06-.42v0a1.57,1.57,0,0,0,.2-.43h0l0-.12a1.42,1.42,0,0,0,.13-.22,1.36,1.36,0,0,0,.17-.56,1.4,1.4,0,0,0,.35-.61,2.74,2.74,0,0,0,.09-.79s0,0,0,0a1.22,1.22,0,0,0,.32-.38l.2-.41-.14-.28a3.27,3.27,0,0,1,.14-.33,2.19,2.19,0,0,0,.23-.65l0-.11h0a1.64,1.64,0,0,0,.36-.38,1.56,1.56,0,0,0,.25-.76l.37-.47,0-.53c0-.08,0-.17,0-.26l.21-.22v-.26l.28-.27v-.39a1.5,1.5,0,0,0,0-.22,2.12,2.12,0,0,0,.11-.21s0,.07,0,.1a6.19,6.19,0,0,1,.08.81l0,.38c0,.46-.13,1.22-.17,1.91a7.25,7.25,0,0,0,0,.93l0,.44a1.52,1.52,0,0,0-.12.66l.12.82-.11.71.11.54-.16,1.38.14.08c0,.28,0,.57-.07.86a8.26,8.26,0,0,0,0,1,2.65,2.65,0,0,1,0,.29l-.12.34v.19c0,.1,0,.36,0,.64l-.24.12.27,1.38-.21.36.06.66a.78.78,0,0,0,0,.22l-.27.4.24.47c.06.13.09.22,0,.27a2.11,2.11,0,0,0-.07.46l0,.22s0,0,0,.08l-.08.19.26.72,0,.19a1.66,1.66,0,0,0-.24.66,1.13,1.13,0,0,0,.11.48l-.11.75a.76.76,0,0,1,0-.22l-.14.37.06.27a1.34,1.34,0,0,0,.1.32v.12a4,4,0,0,0,0,.44c0,.73,0,1.32,0,1.71l0,.43.07.06a2.56,2.56,0,0,0-.07.58v.1l0,2.06a2.37,2.37,0,0,0,.36,1.2l.24.25a1.62,1.62,0,0,0,.89.29,3.31,3.31,0,0,0,.63-.09,2.66,2.66,0,0,1,.41-.08l.31,0,.22-.22a1,1,0,0,0,.23-.33l.5-.3-.17-1.25.09-.63v-1a6.74,6.74,0,0,0-.18-1.14.86.86,0,0,1,0-.34c0-.17.06-.4.11-.74a6.85,6.85,0,0,0,0-.78,4.54,4.54,0,0,1,0-.74,1.64,1.64,0,0,1,.17-.64l-.08-.93c-.06-.4-.12-1-.13-1.14s0-.19.06-.33a8.93,8.93,0,0,0,.15-.93l0-.43-.11-.1c0-.11,0-.28,0-.54v-.47c0-.3,0-.68,0-1.07a13.4,13.4,0,0,1,.14-2.27l.19-.62-.3-.44a1.87,1.87,0,0,1,0-.3,5.16,5.16,0,0,0,.09-.79c0-.57,0-1.14,0-1.66,0-.29,0-.55,0-.71a4,4,0,0,1,.1-.52,1.78,1.78,0,0,0,.08-.45,1.36,1.36,0,0,0-.12-.5,3,3,0,0,1-.11-.35,2,2,0,0,1-.06-.63c0-.18.06-.43.06-.6s0-.49,0-.49h0a5,5,0,0,1,.17-.6A1.38,1.38,0,0,0,104.59,214.9ZM97,216Z"/><path d="M153.52,209.38a2.71,2.71,0,0,1-.05-.37l0-.26c-.31-1-1.42-1-2.32-1a2.87,2.87,0,0,0-.72.11,3.73,3.73,0,0,1-.54.1c-.11,0-.25,0-.4,0a4.25,4.25,0,0,0-1-.06c-.29,0-.48.16-.45.2a1.86,1.86,0,0,1-.38-.06,4.31,4.31,0,0,0-.86-.11H146l-2.24-.14-1.85.09a5.6,5.6,0,0,0-1.06-.11,1.37,1.37,0,0,0-.63.05l-.56-.14-1.94.18h-.19l-1.48-.06a5.88,5.88,0,0,0-1.12,0,4.28,4.28,0,0,1-.87-.15l-.3-.11-.31.09a1.47,1.47,0,0,0-1,1.66,5,5,0,0,0,.09,1l.13.31a2.24,2.24,0,0,0,1.22.76h0a2.14,2.14,0,0,0,1.24-.21l.13.07a2.69,2.69,0,0,0,.74.26,1.29,1.29,0,0,0,.9-.24l.15,0a2.73,2.73,0,0,0,.62.16,1.55,1.55,0,0,0,1-.25l1.4.29.28-.09.3.11.31,0a1.53,1.53,0,0,0,.7-.21l.14,0a4.35,4.35,0,0,0,.6.09,2.32,2.32,0,0,0,.84-.23h0l.22.07c.76.25,1,.16,1.23.07l.22,0a3.15,3.15,0,0,0,1.18,0,3.4,3.4,0,0,0,.92.13,3.78,3.78,0,0,1,.45,0,1.59,1.59,0,0,0,.58.13,2.39,2.39,0,0,0,.78-.17c.31.1.94.11.9,0l.15,0a4.19,4.19,0,0,0-.1.71l0,.26a.67.67,0,0,1-.18.55l-.15.23c-.09.13-.22.31-.34.52a1.75,1.75,0,0,0-.62.49l-.25.31-.43.55a.7.7,0,0,1-.16.13,3.89,3.89,0,0,0-.47.42,2,2,0,0,0-.35.53,1.19,1.19,0,0,0-.68.37,1.3,1.3,0,0,0-.36.87l-.15.1a3.08,3.08,0,0,0-.68.53,3.77,3.77,0,0,0-.52.73,1.4,1.4,0,0,1-.28.34l-.31.36a7.74,7.74,0,0,1-.84.8l-.18.2a2.5,2.5,0,0,0-.25.44,3.5,3.5,0,0,0-.6.41,1.66,1.66,0,0,0-.5.62s0,.07-.05.1l-.48.47c-.19.19-.41.41-.67.65a5.55,5.55,0,0,0-.64.78,2.31,2.31,0,0,0-.66.52,1.48,1.48,0,0,0-.4.79,6.73,6.73,0,0,1-.67.6,8.52,8.52,0,0,0-.89.83c-.17.21-.29.4-.41.58a4.73,4.73,0,0,1-.41.57L136,228a5.86,5.86,0,0,0-.56.69,3.17,3.17,0,0,0-.65.55,1.72,1.72,0,0,0-.46.61l-.14.16a2.11,2.11,0,0,0-.5.4,1.58,1.58,0,0,0-.29.56l-.21.17a1.91,1.91,0,0,0-.43.36c-.24.24-.43.47-.59.66l-.15.29c0,.08-.11.18-.17.29a2.47,2.47,0,0,0-.53,1.33,1.5,1.5,0,0,0,0,.22,2,2,0,0,0,0,.43,3.31,3.31,0,0,0,.09.73l-.09.19v.21a1,1,0,0,0,.07.38,3.36,3.36,0,0,0-.07.38,1.23,1.23,0,0,0,.07.39h0a2.06,2.06,0,0,0-.19.74,1.25,1.25,0,0,0-.29-.63c0-.09-.06-.2-.1-.3l-.06-.16a7.86,7.86,0,0,0-.39-1l-.05-.13a1.63,1.63,0,0,0-.22-.73,1.51,1.51,0,0,0-.24-.26l-.06-.21c0-.11,0-.2,0-.28a1.8,1.8,0,0,0-.15-.76,2.27,2.27,0,0,0-.35-.49l-.1-.82a2.13,2.13,0,0,0-.17-.68,3.31,3.31,0,0,0-.29-.47,2.07,2.07,0,0,1-.19-.32l-.11-.27,0-.63-.13-.21a2.39,2.39,0,0,0-.17-.43,2.5,2.5,0,0,0-.18-.24,1.33,1.33,0,0,0,0-.43,1.32,1.32,0,0,0-.24-.49,1.91,1.91,0,0,0-.19-.69l-.21-.26,0-.1A4.15,4.15,0,0,0,127,226c-.06-.14-.14-.29-.22-.44a4.66,4.66,0,0,0-.3-1.21,2.52,2.52,0,0,0-.24-.44l-.08-.24a3.78,3.78,0,0,0-.12-.36,1.75,1.75,0,0,1-.14-.5v-.38l-.37-.36c0-.16-.09-.32-.13-.48a5.42,5.42,0,0,0-.22-.73,3.21,3.21,0,0,0-.3-.56l-.1-.2a3.29,3.29,0,0,1-.14-.59,3,3,0,0,0-.1-.5,7.24,7.24,0,0,0-.49-1.46,1.27,1.27,0,0,0-.29-.54,1.35,1.35,0,0,0-.14-.59,7,7,0,0,0-.59-1.15l-.07-.13a3,3,0,0,0-.24-1.26,2.65,2.65,0,0,0-.37-.48l-.19-.23c-.05-.11-.1-.24-.15-.37a4,4,0,0,0-.28-.64,1.19,1.19,0,0,0-.23-.26,3.63,3.63,0,0,0-.15-.51c0-.16-.07-.31-.11-.46a9.83,9.83,0,0,0-.28-1c0-.11-.11-.24-.18-.37l0,0a1.32,1.32,0,0,0,0-.51l-.32-.52-.26-.23a2,2,0,0,0-.91-.3,1.71,1.71,0,0,0-1.47,1.07l0,.1c0,.09-.09.18-.13.28l-.06.18c0,.1,0,.19,0,.23a.88.88,0,0,1-.17.22l-.25.29,0,.36a1.27,1.27,0,0,1-.14.46,1.82,1.82,0,0,0-.42.67V212a1.74,1.74,0,0,0-.11.18,2.23,2.23,0,0,0-.23.42l-.07.17a1.61,1.61,0,0,0-.21.7,1.5,1.5,0,0,0,0,.22c0,.09-.07.19-.11.28a3.57,3.57,0,0,1-.2.46l-.12.16a3.43,3.43,0,0,0-.41.63,5.61,5.61,0,0,0-.17.58c0,.13-.06.23-.06.24l-.11.24c-.13.29-.24.54-.34.81a1.2,1.2,0,0,0-.1.7,1.86,1.86,0,0,0-.18.23,2.14,2.14,0,0,0-.6,1,.65.65,0,0,0,0,.38l-.32.18-.2.73a5.75,5.75,0,0,1-.26.81l-.12.3a5.62,5.62,0,0,0-.2.62,1.58,1.58,0,0,0-.34.47,2.06,2.06,0,0,0-.08.63.14.14,0,0,0,0,.09,1.61,1.61,0,0,0-.42.54,1.17,1.17,0,0,0-.12.59,1.63,1.63,0,0,1-.11.17,2.58,2.58,0,0,0-.29.51,3.11,3.11,0,0,0-.15.42l0,.14-.42.6a2.89,2.89,0,0,0-.18.66,1,1,0,0,1,0,.18h0a2.11,2.11,0,0,0-.21.24l-.58.86.11.06a2.42,2.42,0,0,0-.1.61,1,1,0,0,1-.13.23,2.62,2.62,0,0,0-.25.44l-.06.24a2.21,2.21,0,0,0,0,.42v0c0,.06-.06.14-.09.21a1.25,1.25,0,0,0-.63.67,2.93,2.93,0,0,0-.14.73c0,.1,0,.19,0,.13l-.13.2a3.88,3.88,0,0,0-.31.58,3,3,0,0,0-.13.49c0,.08,0,.18,0,.2l-.09.18c-.06.09-.12.18-.17.27l-.09.32a2.25,2.25,0,0,1-.24.77c0,.08-.1.16-.15.24a3.07,3.07,0,0,0-.27.46,1.75,1.75,0,0,0-.15.48l-.1.16a2.9,2.9,0,0,0-.29.36,3,3,0,0,0-.39,1.33v.39l.22.45.31.15a.89.89,0,0,0,.22.1l.17.14a1.64,1.64,0,0,0,1,.31,1.6,1.6,0,0,0,1.17-.66,1.4,1.4,0,0,0,.4-.43,3.59,3.59,0,0,0,.35-.88,1.75,1.75,0,0,1,.15-.41,3.51,3.51,0,0,0,.27-.55c0-.11.08-.26.12-.41a1.31,1.31,0,0,1,.13-.34,2.12,2.12,0,0,0,.25-.4,2.28,2.28,0,0,0,.12-.47l0,0,.3-.44v-.38a.59.59,0,0,1,0-.14,5.6,5.6,0,0,0,.25-.53,1.74,1.74,0,0,0,.37-.76,2.7,2.7,0,0,0,0-.28c0-.08,0-.17,0-.21a2,2,0,0,1,.14-.25l.58-.87-.16-.08a1.45,1.45,0,0,1,.1-.18,3.94,3.94,0,0,0,.38-.77,1.81,1.81,0,0,0,.15-.63v0h0a1.58,1.58,0,0,0,.36-.6h0l.08-.3a1.35,1.35,0,0,0,.28-.44,3,3,0,0,0,.21-.69h0s0,0,0,0a1.09,1.09,0,0,0,.28-.4,2.44,2.44,0,0,0,.18-.52.3.3,0,0,1,0-.12l.15-.18a3,3,0,0,0,.29-.61c0-.06.05-.12.07-.17a1.28,1.28,0,0,0,.13-.49.94.94,0,0,0,.32-.38,1.92,1.92,0,0,0,.15-.48l.08-.41a1.51,1.51,0,0,1,0-.31,3.28,3.28,0,0,1,.52,0,2.89,2.89,0,0,0,.64,0,2.71,2.71,0,0,0,.89-.17,1.35,1.35,0,0,1,.27-.07,1,1,0,0,0,.23.05c.13,0,.25.07.39.09a2.61,2.61,0,0,0,.79-.06,7.39,7.39,0,0,0,1.83,0,2.06,2.06,0,0,1,.51,0,2.2,2.2,0,0,1,.62.11l.09,0a1.44,1.44,0,0,0,.53.09c0,.23.12.43.18.62l0,.1a5.16,5.16,0,0,1,.06.95l.71.86,0,.06-.07.79.07.06a1.18,1.18,0,0,0,0,.26l.11.44.29.21a2.05,2.05,0,0,0,.14.38.53.53,0,0,0,0,.13l.1.44.19.24.14.18v.08l-.1.49.35.35.11.18c.07.25.14.51.23.77s.17.38.26.56a4.6,4.6,0,0,1,.25.61c0,.2.09.42.13.64l.15.72.27.21a1.76,1.76,0,0,0,.22.5c.07.3.16.67.27,1a1,1,0,0,0,.15.35.89.89,0,0,0,0,.43,1.49,1.49,0,0,0,.29.62c0,.06,0,.13,0,.2a2,2,0,0,0,.07.51,2.62,2.62,0,0,0,.32.74l.1.18c.18.36.59,1.2,1.4,1.2a1.43,1.43,0,0,0,.36-.06l.95-.21a1.18,1.18,0,0,0,.73-1v0a1.54,1.54,0,0,0,.54.92l.19.15a5.27,5.27,0,0,0,1,.35l.66.19.36-.24h0a2.37,2.37,0,0,0,.95.15,1.35,1.35,0,0,0,.83-.39l1.16.09c.54,0,1,.06,1.24.08l.28,0c.08,0,.53-.06,1-.13a3.9,3.9,0,0,0,.6-.11l2.12.21,1.34.24,1.18-.23,1.21.36,1.25-.27a1,1,0,0,0,.46-.11,8.3,8.3,0,0,1,1,.05,3.67,3.67,0,0,0,.5.11,1.19,1.19,0,0,0,.54,0c.59.07,1.19.17,1.57.23a3.73,3.73,0,0,0,.62.07,1.52,1.52,0,0,0,1.41-.85l.13-.39v-.26a1.36,1.36,0,0,0-.15-.59,1.31,1.31,0,0,0,.09-.47,1.42,1.42,0,0,0-.18-.69v-.38l-.27-.27a3.92,3.92,0,0,0-.51-.39l-.31-.23-.49.08h0a1.78,1.78,0,0,0-.53.09l-.27-.15h-.28a1.55,1.55,0,0,0-.82.25.39.39,0,0,1-.22.09,1.47,1.47,0,0,1-.27,0c-.43-.08-1-.09-1.27-.14a3.17,3.17,0,0,0-1.77.1,5.33,5.33,0,0,0-1.84-.27,5,5,0,0,0-1.14-.06,5.16,5.16,0,0,0-1,.2l-.48-.06c-.8,0-1-.12-1-.1l-.24-.18h-.31a2.64,2.64,0,0,0-.8.2l-.34.11-.07,0a2.07,2.07,0,0,0-1.67-.18,2.14,2.14,0,0,0-.53.09,2.7,2.7,0,0,0-1,0,.9.9,0,0,1-.46,0,2.18,2.18,0,0,1,0-.28v-.38l.16-.12.83-1.08,0-.1.07-.07.31-.34c.14-.19.29-.38.43-.59s.32-.44.47-.62a1.2,1.2,0,0,1,.16-.16,1.4,1.4,0,0,0,.62-.38.91.91,0,0,0,.31-.62,5.69,5.69,0,0,0,.43-.43l.19-.15a1.46,1.46,0,0,0,.45-.35A2.91,2.91,0,0,0,140,229a2.25,2.25,0,0,1,.39-.56,2.29,2.29,0,0,0,.36-.29,1.31,1.31,0,0,0,.35-.65.93.93,0,0,1,.25-.16,1.84,1.84,0,0,0,1-.53,1.69,1.69,0,0,0,.35-.68,1.23,1.23,0,0,1,.34-.54,5,5,0,0,1,.85-.82c.12-.1.24-.2.44-.39s.16-.24.25-.39a1.81,1.81,0,0,1,.19-.3,1.24,1.24,0,0,1,.19-.2,4.39,4.39,0,0,0,.64-.51,2.86,2.86,0,0,0,.42-.57,2.6,2.6,0,0,1,.3-.43.87.87,0,0,1,.16-.14,1.42,1.42,0,0,0,.21-.17,1.23,1.23,0,0,0,.45-.46,2.58,2.58,0,0,0,.72-.36l.24-.12.14-.23a1.27,1.27,0,0,0,.19-.59,2.76,2.76,0,0,1,.42-.5c.15-.17.3-.33.43-.5a5,5,0,0,1,.63-.71,4.88,4.88,0,0,0,.58-.6c.16-.19.33-.44.5-.69a4.36,4.36,0,0,1,.43-.58c.16-.13.28-.21.46-.34a1.74,1.74,0,0,0,.71-.69l.16-.19a2.18,2.18,0,0,0,.72-1.21,1.53,1.53,0,0,0-.06-.68,1,1,0,0,1,0-.49,1.84,1.84,0,0,0,.15-.71c0-.12,0-.23,0-.33l-.06-.37a.85.85,0,0,1,0-.17,1.22,1.22,0,0,0,.1-.6,1.56,1.56,0,0,0,0-.2,1.45,1.45,0,0,0,.11-.54A3.85,3.85,0,0,0,153.52,209.38Z"/><path d="M175.46,213.36a3.14,3.14,0,0,0-.4-.51l-.19-.27a10,10,0,0,0-1-1.22,2.41,2.41,0,0,0-.88-.49.6.6,0,0,1-.32-.16,2.12,2.12,0,0,1-.26-.26,3.11,3.11,0,0,0-.33-.33,2.64,2.64,0,0,1-.14-.29,2.59,2.59,0,0,0-.58-.92,2.42,2.42,0,0,0-.95-.48,1.42,1.42,0,0,1-.26-.1l-.31-.27a4.87,4.87,0,0,0-.79-.61,3.35,3.35,0,0,0-1.53-.45h-.2a3.26,3.26,0,0,1-.38,0h-.24a4.75,4.75,0,0,0-1,.05,1.63,1.63,0,0,0-.57.22l-.22-.08-.25-.08a1.37,1.37,0,0,0-.49-.1l-.48.11a1.58,1.58,0,0,1-.37.1,1.17,1.17,0,0,1-.27,0,3.15,3.15,0,0,0-.67,0,2.91,2.91,0,0,0-.76.28l-.21.06-.17.14-.35.26a15.64,15.64,0,0,0-1.24,1,1.33,1.33,0,0,0-.37.8,1.69,1.69,0,0,0-.76.37c-.14.13-.33.27-.53.42a9.53,9.53,0,0,0-.81.68,2.79,2.79,0,0,0-.69.94,1,1,0,0,1-.19.3,1.54,1.54,0,0,1-.18.16,2.85,2.85,0,0,0-.59.61,2.18,2.18,0,0,0-.37,1.35,1.57,1.57,0,0,0,.1.64l-.06.24a3.08,3.08,0,0,0,0,.8v1.16l0,.2v0a1.65,1.65,0,0,0-.11.69l.11.46,0,0c0,.33,0,.6-.05.81a1.7,1.7,0,0,1,0,.25l0,.19a2.36,2.36,0,0,0,0,1.18,1.59,1.59,0,0,1,0,.28,1.52,1.52,0,0,1-.09.25,2.11,2.11,0,0,0-.18.73,4,4,0,0,0,.11.91,1.56,1.56,0,0,1,.06.36,4.16,4.16,0,0,0,.08.74,3.94,3.94,0,0,0-.25,1,1.46,1.46,0,0,0,.14.6.93.93,0,0,1,.07.5,2.64,2.64,0,0,0-.07.55,1.38,1.38,0,0,0,.1.52,1.83,1.83,0,0,0-.12.5,2.55,2.55,0,0,0,.16,1.25h0a1.38,1.38,0,0,0-.28.77,3.66,3.66,0,0,0,.1.74,3.39,3.39,0,0,1,.07.43,2.07,2.07,0,0,1,0,.22,2.11,2.11,0,0,0-.09.82,2,2,0,0,1,0,.35,3.54,3.54,0,0,0,.12,1.06,1.88,1.88,0,0,0,.64.79l.18.17a2.19,2.19,0,0,0,1,.57c.1,0,.2.14.22.07a1.55,1.55,0,0,0,.56.93l.23.33a1.54,1.54,0,0,0,.62.35,2.7,2.7,0,0,0,.58.17l.11,0,.1.22a2.52,2.52,0,0,0,.58,1,3.16,3.16,0,0,0,.67.53,3.51,3.51,0,0,1,.38.28l.18.12a4.13,4.13,0,0,0,1.51.27H163a5.77,5.77,0,0,1,.62.05,2.31,2.31,0,0,0,.5.07h.11l.69-.16,1.72.12,1.05-.06a1.25,1.25,0,0,0,.9-.42c.07-.06.16-.15.29-.25l.37-.2a5.87,5.87,0,0,0,1-.67,1.27,1.27,0,0,0,.21-.27l.22-.1a1.72,1.72,0,0,0,.67-.38,1.38,1.38,0,0,0,.38-.76l.25-.25a5,5,0,0,1,.45-.46,2.33,2.33,0,0,1,.5-.26,3,3,0,0,0,.92-.57,3,3,0,0,0,.5-.74,13.4,13.4,0,0,0,.85-1.23l.09-.33a14.48,14.48,0,0,0-.06-2.44c0-.21,0-.39-.05-.47a2,2,0,0,1,.07-.33,3.62,3.62,0,0,0,.18-1.18,2.68,2.68,0,0,0-.14-.71v-.05a2.56,2.56,0,0,0,.15-.57,2.36,2.36,0,0,0-.1-.94,2.11,2.11,0,0,1,0-.21,4.45,4.45,0,0,0,.05-.5c0-.68,0-1.42.05-2.27a1.82,1.82,0,0,0,.08-.51v-.52a2.47,2.47,0,0,0,0-.36,8,8,0,0,1-.1-.82l0-.16v0a2.91,2.91,0,0,0,.1-.59,3.21,3.21,0,0,0-.08-.9.82.82,0,0,1,0-.35,1.66,1.66,0,0,0,.13-.38l.13-.66-.16-.09a1.58,1.58,0,0,0,.11-.61l-.13-2.42.11-.58Zm-13.65,22.06-.24-.15v0a2.46,2.46,0,0,0-.3-.47,5.3,5.3,0,0,0-.59-.57,4.22,4.22,0,0,1-.5-.53l-.11-.25a1.62,1.62,0,0,0-.51-.63,1.18,1.18,0,0,0-.64-.26,1.23,1.23,0,0,0-.36-.36l-.13-.11v0a1.84,1.84,0,0,0,.16-.89v-.1l-.07-.14c0-.06,0-.13-.06-.21a1.59,1.59,0,0,0,.19-.7c0-.13,0-.31,0-.51a4.75,4.75,0,0,1,0-.56l0-.73c0-.53,0-1.05-.08-1.46a3,3,0,0,0-.14-.6,1.17,1.17,0,0,1,0-.4,3,3,0,0,0,.32-1.53s-.09-.72-.13-1.68a2.72,2.72,0,0,1,.09-.49,3.63,3.63,0,0,0,.12-1,4.34,4.34,0,0,0-.28-1.44c0-.08,0-.26.09-.52a11.25,11.25,0,0,0,.19-1.41,5,5,0,0,0-.06-.95,2.38,2.38,0,0,1,0-.59l0-.21a2,2,0,0,0,.1-.54,5.17,5.17,0,0,0,0-.52,6.29,6.29,0,0,0,.71-.73,1.06,1.06,0,0,0,.23-.45,1.82,1.82,0,0,0,.49-.33,4,4,0,0,0,.38-.48,1.79,1.79,0,0,0,.15-.22,2.17,2.17,0,0,1,.35-.2,3.08,3.08,0,0,0,.66-.41,2,2,0,0,0,.45-.59,1.75,1.75,0,0,1,.17-.3,3.59,3.59,0,0,1,.65-.47l.24,0a5.09,5.09,0,0,1,.8,0,1.24,1.24,0,0,1,.39.07,1.12,1.12,0,0,0,.29,0l.34,0,.49-.08a4.59,4.59,0,0,1,1,0,2.09,2.09,0,0,1,1.45.48,2.15,2.15,0,0,0,.48.58,2,2,0,0,0,.79.29,1.5,1.5,0,0,0,.41.72,2.25,2.25,0,0,0,.75.41c.1,0,.24.1.28.19a1.74,1.74,0,0,0,.72.86l.06.07.17.17.06.16.06.26.19.2.15.13-.14.11v.45a1.26,1.26,0,0,0,.08.43,1.56,1.56,0,0,0-.18.67l.16.85-.16,1.69a1.05,1.05,0,0,0,.23.67s0,0,0,0a13.17,13.17,0,0,1-.18,1.32l-.07,2.16a2,2,0,0,0,.2.95h0a5,5,0,0,0-.23,1.09,2.94,2.94,0,0,0,.19.85l0,.06a3.37,3.37,0,0,0-.2.72,2.69,2.69,0,0,0,.15,1.4l-.27.36.16.44a2.06,2.06,0,0,1-.05.51c0,.18,0,.36-.07.54s0,.37,0,.56a5.11,5.11,0,0,1,0,.65,1.29,1.29,0,0,1-.14.18l-.26.32a1.18,1.18,0,0,1-.3.2,2.79,2.79,0,0,0-.89.74,1.31,1.31,0,0,0-.15.4,1.52,1.52,0,0,0-.7.38,1.44,1.44,0,0,0-.38.85,1.68,1.68,0,0,0-.78.35,5.21,5.21,0,0,0-.61.56,1.79,1.79,0,0,1-.23.24,5.57,5.57,0,0,1-.67.36,2.88,2.88,0,0,0-1.92.11,4,4,0,0,0-1.28-.24,6.84,6.84,0,0,0-.76.1l-.1-.07-.28-.17A1.28,1.28,0,0,0,161.81,235.42Zm11-11.76h0Z"/><path d="M199.41,209.8c0-.1-.07-.61-.14-1.1l-.14-1-.58-.36a2.82,2.82,0,0,0-.31-.21L198,207h-.56a2.51,2.51,0,0,0-1.14.33l-.23.1-.12.26a1.57,1.57,0,0,0-.23.49l-.15.28,0,.77.14.16a1.54,1.54,0,0,1,0,.19c0,.15,0,.34-.07.54a6.31,6.31,0,0,0,0,.88v.48l0,.25a2.9,2.9,0,0,1,.06.7,4.35,4.35,0,0,0,0,.56,1.52,1.52,0,0,0,.1.56s0,.1,0,.15a6.69,6.69,0,0,0-.16,1.25l.07.43-.13.22.19.38a3.46,3.46,0,0,0,0,1.35c0,.11,0,.21,0,.32a1.54,1.54,0,0,0-.1.52,4.77,4.77,0,0,0,0,.5c0,.11,0,.22,0,.33s0,.45,0,.65a3.75,3.75,0,0,0-.05.52c0,.36,0,.65,0,.58l0,.25c0,.07,0,.17,0,.35l0,.19c0,.13,0,.26.06.4a5.47,5.47,0,0,0-.09.69c0,.57,0,1.18,0,1.79v.87a2.07,2.07,0,0,0-.11.6,2.27,2.27,0,0,0,.07.53,2.21,2.21,0,0,1,0,.35c-.06.42-.08.7-.09.91s0,.19,0,.26l0,.25a1.59,1.59,0,0,0,.14.63,3.45,3.45,0,0,1,0,.62,7,7,0,0,0,0,.85c0,.12.05.23.08.35l0,.2a1.72,1.72,0,0,0-.11.54,2.93,2.93,0,0,0,.11.7,2.38,2.38,0,0,1,0,.34c0,.18,0,.33,0,.4a12.26,12.26,0,0,0,.15,1.23,1.2,1.2,0,0,0-.12.51l-.15-.36a5,5,0,0,0-.29-.62l-.18-.33-.39-.93v-.22l-.36-.37-.12-.27a1.31,1.31,0,0,0-.06-.27l0-.12a2.16,2.16,0,0,0-.35-1.2l-.24-.26a1.28,1.28,0,0,1-.24-.29,1.84,1.84,0,0,0-.24-.64,3.24,3.24,0,0,0-.19-.37l0-.2-.91.15.87-.39a2.26,2.26,0,0,0-.24-.84,1.47,1.47,0,0,0-.43-.49.92.92,0,0,0-.24-.51,1.31,1.31,0,0,0-.34-.3v0a3,3,0,0,0-.55-1.56l-.1-.15h0a4.15,4.15,0,0,0-.4-1.19,1.08,1.08,0,0,0-.45-.58c0-.08,0-.16-.05-.24a5.55,5.55,0,0,0-.18-.67,2.62,2.62,0,0,0-.38-.59l-.14-.17a.66.66,0,0,1,0-.2,2.22,2.22,0,0,0,0-.51l0-.3-.22-.22-.14-.13V219l-.18-.24a1.79,1.79,0,0,0-.24-.26.73.73,0,0,0-.12-.32,1.44,1.44,0,0,0-.34-.45v-.14l-.07-.23v-.09l-.08-.12a2.62,2.62,0,0,0-.12-.41,2.68,2.68,0,0,0-.46-.68c-.07-.08-.15-.17-.14-.14a4.7,4.7,0,0,1-.18-.67,6.89,6.89,0,0,0-.24-.82,1.8,1.8,0,0,0-.27-.39,2.57,2.57,0,0,0-.13-.85l-.07-.25-.18-.18a1.91,1.91,0,0,0-.36-.3c0-.1,0-.19-.08-.3l-.24-.92-.16-.07a1.35,1.35,0,0,0,0-.63,2.08,2.08,0,0,0-.35-.68l-.17-.22a.55.55,0,0,0-.11-.1l-.09-.31a3,3,0,0,1-.16-.39.23.23,0,0,1,0,.07v-.07s0-.09-.05-.14a1.21,1.21,0,0,1,.05.14l-.09-.47-.38-.28a2,2,0,0,0-1.12-.51.92.92,0,0,0-.44.1,1.73,1.73,0,0,0-.93-.08l-.5-.07c-.39-.07-.79-.12-.87-.12a1.08,1.08,0,0,0-.66.2,2.32,2.32,0,0,0-.53.34,1.14,1.14,0,0,0-.41.87l-.05.64a8.32,8.32,0,0,0,0,.86,2.12,2.12,0,0,0,.13.89,3.56,3.56,0,0,1-.05.54c0,.19,0,.35,0,.4a3.54,3.54,0,0,0,0,.73,2.73,2.73,0,0,1,0,.43,2.71,2.71,0,0,0,0,.69c0,.1,0,.2.1.45s0,.63,0,.93a8,8,0,0,0,0,.91,1.25,1.25,0,0,0,.09.38,2.51,2.51,0,0,0-.1.51.76.76,0,0,0,0,.15l-.11,1a4,4,0,0,0,0,.6c0,.1,0,.2,0,.3l-.09.26a2.65,2.65,0,0,0-.06.6,4,4,0,0,0,.31,1.14l0,.22a6.93,6.93,0,0,0,0,.93,2.87,2.87,0,0,0,.1.68,1.73,1.73,0,0,1-.08.35,3.6,3.6,0,0,0-.12.65,1.49,1.49,0,0,1,0,.21s0,.07,0,.1l0,1,.15.62-.12.75a1.29,1.29,0,0,0,.15.56,1.72,1.72,0,0,0,0,.37.78.78,0,0,0,.06.32,3.8,3.8,0,0,0-.12,1.09,1.25,1.25,0,0,0,.14.57c0,.06,0,.15-.05.21a1.91,1.91,0,0,0-.08.7l.05.22a2.24,2.24,0,0,1,.06.48v.25a2.34,2.34,0,0,0,.08.54,1.32,1.32,0,0,0-.13.51,2.2,2.2,0,0,0,0,.63,1.25,1.25,0,0,1,0,.21,1.28,1.28,0,0,1-.06.45,1.86,1.86,0,0,0-.15.68,3.65,3.65,0,0,0,.12.87l0,.14a7,7,0,0,1,.06.86l0,.2a4.42,4.42,0,0,1,.05.61,2.21,2.21,0,0,1-.08.66l-.09,1.5a3.32,3.32,0,0,1,.33.43l.23.39.74.09a5.71,5.71,0,0,0,.64.07,1.77,1.77,0,0,0,1.12-.5,2.19,2.19,0,0,0,.69-1.68,3.9,3.9,0,0,0-.07-.65l0-.25a2.35,2.35,0,0,0,0-.66,2.81,2.81,0,0,0-.17-.42l.26-.32-.22-1.88.13-.55,0-.47,0,0a1.74,1.74,0,0,0,0-.6l-.14-.5a1.09,1.09,0,0,0,.2-.62l-.11-.53.1-.35-.14-.28.12-.79-.08-.14a1.23,1.23,0,0,0,0-.5,3.2,3.2,0,0,0-.15-.54c0-.08,0-.16,0-.24s0-.27,0-.37,0-.2,0-.44a1.69,1.69,0,0,0,.19-.59,1.19,1.19,0,0,0-.19-.85l0-.06a1.89,1.89,0,0,0,.15-.77l-.15-.63v-.11l0-.34a2.64,2.64,0,0,0,.21-.87,1.22,1.22,0,0,0-.15-.56c0-.07-.06-.16-.1-.28s0-.11-.05-.14.07-.32.12-.51a3.89,3.89,0,0,0,.15-.81,1.19,1.19,0,0,0-.08-.44v-.23a4.28,4.28,0,0,0-.11-.92,2.13,2.13,0,0,0-.08-.27,1.48,1.48,0,0,0,.17-.6c0-.4,0-.9,0-1.42s0-.78,0-1.13c0-1.13.19-2.14.2-2.3a7.1,7.1,0,0,0,0-.77l.09.12c.05.11.1.22.16.33l.11.25a2.71,2.71,0,0,0,.41.53l0,0a1.6,1.6,0,0,0,.07.8,6.4,6.4,0,0,0,1,1.6v.09a1.78,1.78,0,0,0,.13.86,2.8,2.8,0,0,0,.41.65l.11.14a2.14,2.14,0,0,0,.09.46,1.49,1.49,0,0,0,.35.54l.05.12a5.24,5.24,0,0,0,.24.56v0a2.23,2.23,0,0,0,0,.58l.22.38s0,0,0,.07,0,.23,0,.33v.38l.28.27a1.27,1.27,0,0,0,.2.16c.06.16.13.39.19.6a5.83,5.83,0,0,0,.24.67l.13.31.49.23a3,3,0,0,1,.2,1,3.42,3.42,0,0,0,.29.82l.06.24.46.42a1.74,1.74,0,0,1,.19.26l.18.24c0,.05,0,.11,0,.16a3.81,3.81,0,0,0,.14.56,1.06,1.06,0,0,0,.23.39,1.16,1.16,0,0,0,.08.54l.06.35.11.17a1.31,1.31,0,0,0,.24.27.86.86,0,0,0,.21.45,1.11,1.11,0,0,0,.35.34.93.93,0,0,1,.05.1v.83l.2.06a.69.69,0,0,0,0,.13,1.64,1.64,0,0,0,.38.72,1.55,1.55,0,0,1,.13.17,5.84,5.84,0,0,1,.3.86l.17.33a3.73,3.73,0,0,1,.48,1.14,4.58,4.58,0,0,0,.31.84l.14.25.25.13.53-.75h0l-.18.5-.27.22a4,4,0,0,1,.31.89c.08.25.16.52.25.78a2.94,2.94,0,0,0,.39.7l.17.37a7.71,7.71,0,0,0,.46.9,2.81,2.81,0,0,0,.31.34l.32.42,1-.12c.12,0,.73.07,1.17.13l.29.06.32.05a2.29,2.29,0,0,0,1.06-.37,1.9,1.9,0,0,0,.83-1.54,1.52,1.52,0,0,0,.13-.55,2.58,2.58,0,0,0,0-.43l.09-.6a7.5,7.5,0,0,0,0-.81l-.12-.37.16-.17v-.39l-.2-.75.05-1.09-.08-.62.16-.66,0-.37a3.11,3.11,0,0,1-.07-.56c0-.18,0-.37.05-.59a8.17,8.17,0,0,0,.09-1.2,2,2,0,0,0-.1-.58,3.64,3.64,0,0,1,.05-.45l0-.41a3.54,3.54,0,0,0-.1-.7.65.65,0,0,1,0-.19,2.5,2.5,0,0,0,.1-.58,2.54,2.54,0,0,0-.1-.65.71.71,0,0,1,0-.3,1.46,1.46,0,0,0,.11-.54,2.57,2.57,0,0,0-.07-.83,1.48,1.48,0,0,1,0-.19,2,2,0,0,1,.07-.52l0-.27a3.29,3.29,0,0,0-.18-.87,4.56,4.56,0,0,0,.11-.46,2,2,0,0,0-.09-.54.92.92,0,0,1-.05-.25,1.93,1.93,0,0,1,.06-.41c0-.16,0-.31.08-.55a3.74,3.74,0,0,0-.08-.7v-.16a1.78,1.78,0,0,0,.23-.53l.08-.32-.14-.3a1.93,1.93,0,0,1-.1-.68,6,6,0,0,0-.11-1c0-.16.07-.34.11-.52l.19-.78-.34-.35a1.36,1.36,0,0,1,0-.35,1.79,1.79,0,0,0,.13-.53c0-.48.07-1,.13-1.52a1.58,1.58,0,0,0-.12-.79,3.83,3.83,0,0,1,.16-.63A1.34,1.34,0,0,0,199.41,209.8Zm-.72,27.51h0Z"/><path d="M206.65,210.66l-.05-.09v-.19a1.64,1.64,0,0,0-.44-.85,2.18,2.18,0,0,0-.63-.58l-1-.32-.2,0a4.25,4.25,0,0,0-1.71.46,2.6,2.6,0,0,0-.89,1.38l-.06,1a2,2,0,0,0,.14.65l.22.6.44.22.29.4h.5l.63.33.54-.15h.08l1-.3a.87.87,0,0,0,.31-.26,2,2,0,0,0,.53-.66l.32-.51v-.21c0-.07,0-.13,0-.11l.21-.41Z"/><path d="M206.68,215.92l-.25-.37a1.18,1.18,0,0,0-.76-.7,3.15,3.15,0,0,1-.39-.14l-.23-.08-.24,0a2.83,2.83,0,0,0-.52.13l-.52-.11a1.7,1.7,0,0,0-1.17.49,1.18,1.18,0,0,0-.29.88v.31a6,6,0,0,0,.07.81c0,.12,0,.22,0,.32a3.07,3.07,0,0,1-.06.51,6.69,6.69,0,0,0-.11,1.1l.08.42a1.34,1.34,0,0,1,.07.29c0,.23.07.47.08.63l0,.07a1.27,1.27,0,0,0-.13.65v.25l.09.15h0l0,.32a.68.68,0,0,0,.06.31l-.06.22a1.54,1.54,0,0,0-.05.31l-.06.17.11,1.16-.11.84.09.7,0,.12a1.48,1.48,0,0,0-.05.39v1.27a3.7,3.7,0,0,0,0,.46,1,1,0,0,0-.12.46l.06.76a4.63,4.63,0,0,0,0,.46,3.78,3.78,0,0,0-.08.43v.21a1.41,1.41,0,0,0,0,.18,2.1,2.1,0,0,0-.19.67,1.1,1.1,0,0,0,.12.49l-.05.3c0,.13,0,.25,0,.36v.19a1.36,1.36,0,0,1,0,.2,2.78,2.78,0,0,0-.05.52,1.87,1.87,0,0,0,0,.34l0,.06a1.83,1.83,0,0,0-.08.6,1,1,0,0,1,0,.29l-.14.43.2.2v0c0,.14,0,.3,0,.47s0,.39,0,.43l-.19.6,0,.39c0,.06,0,.12,0,.18l-.14.16.07,1.45.33.25.16.5H203a1.89,1.89,0,0,0,.45.06,2.41,2.41,0,0,0,.7-.14,1.66,1.66,0,0,0,.33,0,1.83,1.83,0,0,0,1.36-.65l.27-.18.07-1.27-.24-.16v-.75a2,2,0,0,1,0-.83l0-.24,0-.09,0-.54v-.54a3.13,3.13,0,0,0-.1-.44l.36-.36-.28-.7.19-.16,0-.89-.17-.16a2,2,0,0,0,.15-.54l-.06-.39-.09-.16c0-.29-.05-.65-.05-.71l0-.87.15-.56-.1-.25.1-.34a2,2,0,0,0,.12-.63,4.81,4.81,0,0,0-.09-.85,4.87,4.87,0,0,1,0-.51,1.8,1.8,0,0,0,0-1.09l-.89-.16h0l1-.11.23-.73v-.21a1.47,1.47,0,0,0-.15-.63h0l-.13-.32a3.44,3.44,0,0,0,.11-.56c0-.23,0-.52,0-.79s0-.31,0-.46l.12-.15v-.35a1.71,1.71,0,0,0-.12-.58h0a1.24,1.24,0,0,0,0-.38h0l.35-.43V218l-.13-.22-.13-.2a4.24,4.24,0,0,0,.19-.81l0-.24.06-.16Z"/><path d="M232.84,237.14l-.11-.3,0-.16a7.86,7.86,0,0,0-.39-1l0-.13a1.66,1.66,0,0,0-.23-.73,1.47,1.47,0,0,0-.23-.26l-.06-.21c0-.11,0-.2,0-.28a1.64,1.64,0,0,0-.14-.76,2.3,2.3,0,0,0-.36-.49l-.1-.82a2.06,2.06,0,0,0-.16-.68,4.57,4.57,0,0,0-.29-.47,1.17,1.17,0,0,1-.19-.32,1.28,1.28,0,0,1-.11-.27l0-.63-.13-.21A1.82,1.82,0,0,0,230,229a1.08,1.08,0,0,0-.18-.24,1.72,1.72,0,0,0,0-.44,1.35,1.35,0,0,0-.25-.48,1.82,1.82,0,0,0-.18-.69l-.22-.26,0-.1a3.45,3.45,0,0,0-.45-1.29,4.91,4.91,0,0,0-.29-1.2,4.17,4.17,0,0,0-.24-.45,2.23,2.23,0,0,1-.08-.24l-.12-.36a2.12,2.12,0,0,1-.15-.5v-.38l-.36-.36c0-.16-.09-.32-.13-.48a7.17,7.17,0,0,0-.23-.73,2.65,2.65,0,0,0-.29-.56l-.11-.2a4.28,4.28,0,0,1-.13-.59,4.13,4.13,0,0,0-.11-.5,7.38,7.38,0,0,0-.48-1.46,2.51,2.51,0,0,1-.44-1.13,6.88,6.88,0,0,0-.58-1.15.76.76,0,0,1-.07-.13,3.41,3.41,0,0,0-.24-1.26,3.19,3.19,0,0,0-.37-.48,1.79,1.79,0,0,1-.19-.23,3.17,3.17,0,0,1-.15-.37,5.23,5.23,0,0,0-.28-.64,1.19,1.19,0,0,0-.23-.26,3.63,3.63,0,0,0-.15-.51c0-.16-.08-.31-.11-.46a10.06,10.06,0,0,0-.29-1,3.09,3.09,0,0,0-.18-.37v0a1.41,1.41,0,0,0-.06-.52l-.31-.51-.27-.23a2,2,0,0,0-.91-.3,1.74,1.74,0,0,0-1.47,1.07l0,.1c0,.09-.09.18-.13.28l-.05.18a.35.35,0,0,0,0,.23,1,1,0,0,1-.16.22l-.26.29v.36a1.93,1.93,0,0,1-.14.46,1.72,1.72,0,0,0-.42.66V212a1.74,1.74,0,0,1-.11.18,2.86,2.86,0,0,0-.22.42l-.08.17a1.62,1.62,0,0,0-.2.7,1.5,1.5,0,0,0,0,.22c0,.09-.08.19-.11.28a3.68,3.68,0,0,1-.21.46l-.12.16a3.24,3.24,0,0,0-.41.64c0,.11-.11.34-.17.57a1.17,1.17,0,0,0,0,.24l-.11.25a7.66,7.66,0,0,0-.34.8,1.32,1.32,0,0,0-.11.7,1.24,1.24,0,0,0-.17.23,2.14,2.14,0,0,0-.6,1,.63.63,0,0,0,0,.38l-.31.18-.21.73a4.69,4.69,0,0,1-.26.81l-.11.3a4.11,4.11,0,0,0-.21.62,1.42,1.42,0,0,0-.33.47,2.08,2.08,0,0,0-.09.63v.09a1.61,1.61,0,0,0-.42.54,1.17,1.17,0,0,0-.12.59,1.63,1.63,0,0,1-.11.17,2.53,2.53,0,0,0-.28.51,2.15,2.15,0,0,0-.15.42s0,.1,0,.14l-.41.6a2.45,2.45,0,0,0-.18.66,1.49,1.49,0,0,0,0,.18h0a2.11,2.11,0,0,0-.21.24l-.57.86.11.06a2,2,0,0,0-.1.61,1.09,1.09,0,0,1-.14.23c-.1.16-.19.32-.25.44l-.06.24a3.53,3.53,0,0,0,0,.42v0a1.2,1.2,0,0,1-.09.21,1.29,1.29,0,0,0-.63.67,3.46,3.46,0,0,0-.14.73c0,.1,0,.19,0,.13l-.12.2a3.88,3.88,0,0,0-.31.58,4.5,4.5,0,0,0-.14.49,1.13,1.13,0,0,1,0,.2l-.1.18a1.91,1.91,0,0,0-.16.27l-.1.32a1.87,1.87,0,0,1-.24.77,1.05,1.05,0,0,1-.15.24c-.09.15-.19.3-.27.46a1.75,1.75,0,0,0-.15.48l-.1.16a4.3,4.3,0,0,0-.29.36,3.07,3.07,0,0,0-.38,1.33v.39l.22.45.3.15a1.1,1.1,0,0,0,.22.1l.17.14a1.71,1.71,0,0,0,1,.31,1.6,1.6,0,0,0,1.18-.66,1.51,1.51,0,0,0,.39-.43,3.23,3.23,0,0,0,.35-.88,2.57,2.57,0,0,1,.16-.41c.09-.17.19-.36.27-.55s.08-.26.12-.41a1,1,0,0,1,.13-.34,2.11,2.11,0,0,0,.24-.4,2.24,2.24,0,0,0,.13-.47l0,0,.29-.44v-.38a.78.78,0,0,0,0-.14,4.14,4.14,0,0,0,.26-.53,1.74,1.74,0,0,0,.36-.76c0-.09,0-.19.05-.28s0-.17,0-.21a2,2,0,0,1,.14-.25l.58-.87-.16-.08a1.42,1.42,0,0,1,.11-.18,5.53,5.53,0,0,0,.38-.77,1.6,1.6,0,0,0,.14-.63v0h0a1.46,1.46,0,0,0,.35-.6h0l.08-.3a1.35,1.35,0,0,0,.28-.44,3,3,0,0,0,.2-.69h0s0,0,0,0a1.26,1.26,0,0,0,.29-.4,2.44,2.44,0,0,0,.17-.52l0-.12.15-.18a3.1,3.1,0,0,0,.3-.61.87.87,0,0,1,.07-.17,1.49,1.49,0,0,0,.13-.49,1.24,1.24,0,0,0,.32-.38,1.9,1.9,0,0,0,.14-.48l.09-.41a3,3,0,0,1,0-.31,3.36,3.36,0,0,1,.53,0,2.35,2.35,0,0,0,.64,0,2.7,2.7,0,0,0,.88-.17,1.41,1.41,0,0,1,.28-.07,1,1,0,0,0,.22.05c.13,0,.26.07.39.09a2.68,2.68,0,0,0,.8-.06,7.31,7.31,0,0,0,1.82,0,2.09,2.09,0,0,1,.51,0,2.14,2.14,0,0,1,.62.11l.1,0a1.41,1.41,0,0,0,.53.09,4.08,4.08,0,0,0,.17.61l.05.11a6.18,6.18,0,0,1,0,.95l.36.52.36.34,0,.06-.07.79.06.06a2.46,2.46,0,0,0,0,.26l.12.44.28.21a3.2,3.2,0,0,0,.14.38v.13l.1.44.19.24.13.18s0,.06,0,.08l-.09.49.35.35.1.18c.08.25.15.51.24.77a4.75,4.75,0,0,0,.25.56,3.61,3.61,0,0,1,.26.61c0,.19.08.41.12.63l.16.73.27.21a1.51,1.51,0,0,0,.22.5c.07.3.15.67.26,1a1.3,1.3,0,0,0,.15.35,1,1,0,0,0,0,.43,1.5,1.5,0,0,0,.3.62,1.27,1.27,0,0,1,0,.2,2.51,2.51,0,0,0,.07.51,2.62,2.62,0,0,0,.32.74l.1.18c.18.36.6,1.2,1.41,1.2a1.35,1.35,0,0,0,.35-.06l.5.36.45-.57a1.19,1.19,0,0,0,.74-1A1.27,1.27,0,0,0,232.84,237.14Zm-10.28-17.67a1.47,1.47,0,0,0-.49-.12h0a3.52,3.52,0,0,0-.66,0,2.19,2.19,0,0,0-.52.08h-.2c-.28-.06-.81-.09-1-.11l-.22,0a2.59,2.59,0,0,0-.62.07,2.2,2.2,0,0,0,.07-.33.72.72,0,0,1,.08-.27c0-.08.12-.2.18-.3s.12-.2.14-.24l.16-.5a1.86,1.86,0,0,0,.27-.48,1.27,1.27,0,0,0,0-.51,1.62,1.62,0,0,0,.1-.18l.31-.32V216a.59.59,0,0,0,0-.13l.09-.14a3.58,3.58,0,0,0,.28-.55c0-.1.11-.3.17-.5a2,2,0,0,1,.13-.34,1,1,0,0,1,.08-.11h0a8.24,8.24,0,0,0,.32,1,2.18,2.18,0,0,0,.41.61V216a1,1,0,0,0,.32.76,2.55,2.55,0,0,1,.11.33c0,.12.05.26.07.39a4.73,4.73,0,0,0,.15.7,2.38,2.38,0,0,0,.31.52.48.48,0,0,1,0,.17l0,.31.17.28.09.14A2.08,2.08,0,0,1,222.56,219.47Z"/><path d="M166.25,200.9a.89.89,0,0,0-.49.11l-.65,0-.72,0a3.2,3.2,0,0,0-1.4.53,1.15,1.15,0,0,0-.44.53l-.39.19a3.61,3.61,0,0,0-.45.43,1.83,1.83,0,0,1-.22.21,13.82,13.82,0,0,0-1.44,1l-.6.44-.37.43,0,.65a2.75,2.75,0,0,0,.73,1.11l.58.26.51-.2a1.4,1.4,0,0,0,.83-.38c.06,0,.16-.15.11-.12a3.87,3.87,0,0,1,.54-.08l.64-.09.15-.15a1.4,1.4,0,0,0,.74-.29,5.44,5.44,0,0,0,.64-.16h.4a1,1,0,0,0,.47-.12,1.62,1.62,0,0,0,.41.13,1.82,1.82,0,0,0,.63.05c.27.08.51.13.74.19a5.46,5.46,0,0,1,1.44.48,3.28,3.28,0,0,0,1.28.36c.62,0,.92-.51,1.16-.92l.13-.22.22-.62-.32-.56-.39-.34-.2-.07a3.58,3.58,0,0,1-.47-.33l-.06,0a1,1,0,0,0-.51-.28,4.54,4.54,0,0,0-1.13-.71,1.57,1.57,0,0,1-.63-.45,1.27,1.27,0,0,0-.57-.32A1.08,1.08,0,0,0,166.25,200.9Zm-2,4.11h0l.07.06Z"/><path class="cls-1" d="M144.43,17.4a.66.66,0,0,1,.88-.23c.7.57-.36.71-.52,1.47a2,2,0,0,0,.33,1.59c.24.51.71,1.26.33,1.73-.18.24-.59-.09-.66,0-.21.39.58.72.56,1-.16,2.5-.1,7.17.16,7.57s6.13,2.51,9.21,3.79l14.36,5.93,8.29,3.46c2.08.88,4.16,1.77,6.25,2.63,1.17.47,2.35.9,3.54,1.33a1.48,1.48,0,0,1,1.13,1.49c.32,3.36.81,6.7,1.18,10.06,0,.29,0,.19-.24,1-.06.18.39.26.4.41.16,1.75.28,3.51.42,5.26a.88.88,0,0,0,.06.27c.47,1.23.42,1.22.25,3.51,0,.48.55,1,.63,1.48s.46,1.55-.21,1.73c0,0,.49.18.4.5-.15.56.21-.08-1.14,1-.15.11-.09.41,0,.55s.49.06.66.18a2.94,2.94,0,0,1,1.05,2.3c.29,2.49,1.45,7.27.83,7.59s-1.17-1.34-1.73-1,.6,1.29.27,1.72A1,1,0,0,1,190,86c-.1-.06,0-.56-.31-.65a1.1,1.1,0,0,0-1.4,1.11c0,.37.28.56.61.41s-.08-.71.28-.77c1-.15.25.64,2.33,1.14,1.16.28.9-.28,1.32-.12.63.24.35,2.26.51,3.32.22,1.46.38,2.93.66,4.38.09.49-.26.51-.39,1s.52.61.63,1-.29.71-.1,1.11a5.07,5.07,0,0,1,.63,2.67c-.48,1.2.68,2.39.9,3.56.54,2.86,1,5.74,1.53,8.61.46,2.63.88,4.34,1.39,7.88.08.57-1.45.86-.33,1.07.19,0,.06-.76.42-.63.93.32,1.82,10.42,2.73,15.66-1.53.62-6.17.41-9.23.59-3.28.19-9.35,1.41-9.79.56s-1.14-3.13-.61-3.59c.2-.17.48.47.78.41.09,0,.2-.13.19-.22,0-.43-.74-.49-1-.91-.72-1.39-.51-3.22-.7-4.89-.08-.7-.62-1.37,0-2.17.18-.22-.55-1.13-.73-1.76-.06-.22.13-.25.63-.55a.19.19,0,0,0,.05-.25c-1.46-1.17-1-2.94-1.31-4.44-.06-.27,1.13-.59.86-1.18-.1-.21-.94.43-1-.06-1.15-5.14-1.45-10.09-2.17-15.26,0,0,.26,0,.17,0-1-.62-.54-2.27-.75-3.4a32.08,32.08,0,0,1-.53-3.76c-.13-2.33-.73-4.58-1-6.89-.18-1.77-.22-3.57-.53-5.31-.61-3.38-1.34-6.74-2.08-10.1q-1.17-5.27-2.48-10.51a1.93,1.93,0,0,0-1-1.06c-3-1.39-6-2.71-9-4.06-.18-.08.37-.6.38-.61.65-.3,1.29.23,1.52-.57.32-1.12-1.43-.71-2-.31-.76.55-1.69.73-2.23.18-.18-.2.56-.87,0-1.05-.36-.14-.3.45-.36.45a5.4,5.4,0,0,1-1.76-.09,36.53,36.53,0,0,1-3.67-1.66c-1-.51-1.95-1.2-3-1.66-1.25-.54-2.59-.9-3.87-1.39-.56-.2-1.37-.68-1.72-.42s0,3.24.14,6.61c0,.24.26,3.82.28,4,.17,3,.3,6,.47,9,.11,1.87.31,3.73.42,5.6,0,.5-.34.8-.26,1.5.12,1.16.44,1.43.51,2.12.28,2.93.44,5.89.57,8.84.1,2.38-.1,4.79.22,7.13.14,1.05,1.14,2,1.89,2.92q4.44,5.25,9,10.41,6.32,7.2,12.71,14.35c.86,1,.43,2.11.38,3.08-.32,5.78-.8,11.56-1.22,17.33-.06.75.06,1.75-.26,2-.61.5-3.15.42-4.77.44l-6.32.08c-2.27,0-4.54,0-6.81,0-.38,0-1,0-1.13-.3s.5-1,.52-1.28-.27-.66-.24-.94c.27-2.72.58-5.44.87-8.16.14-1.38.28-2.76.41-4.13,0-.11-.09-.24,0-.32.7-1.43.08-3,.53-4.49.09-.3-.3-.85-.6-1.16-3.47-3.61-7-7.17-10.44-10.79-1.85-1.94-3.57-4-5.41-6-.95-1-2.06-1.88-3.06-2.85-.78-.75-1.89-2.41-2.3-2.41-.8,0-2.26,2.41-3.41,3.56a30.31,30.31,0,0,0-2.88,2.78,51.77,51.77,0,0,1-5,5.56q-4.32,4.26-8.74,8.41c-2,1.91-4.16,3.72-6.18,5.64a2.21,2.21,0,0,0-.61,1.46c0,3.91,0,7.82,0,11.72a8.49,8.49,0,0,0,0,1.67,7.79,7.79,0,0,1,0,2.31c0,.26-.42.69-.66.69-1.82.05-3.64,0-5.46,0H88.26c-1.24,0-2.48,0-3.71-.11-.28,0-.77-.43-.76-.66,0-2.72.18-5.43.19-8.14,0-2.06-.16-4.11-.19-6.16-.05-2.92-.07-5.83,0-8.75a2.45,2.45,0,0,1,.78-1.49q5.09-5.07,10.24-10.07c.28-.28.82-.27,1.11-.59s.13-.65.36-.88c2.4-2.43,4.83-4.83,7.26-7.24s4.76-4.77,7.16-7.14c.19-.18.6-.13.78-.31.35-.33.48-.92.87-1.11s1.43.6,1.82,0a.68.68,0,0,0-.42-1c-.3,0-.29.63-.56.61s-.19-.24-.18-.26a14.59,14.59,0,0,1,2.43-2.23c.59-.52.88-1.32,1.43-1.87a36.86,36.86,0,0,1,5-4.75c1.36-.94,1.13-2.09,1.24-3.21.16-1.85.09-3.72.17-5.59,0-.23.32-.43.44-.68s.16-.38,0-.48-.29.22-.41.13c-.55-.41.64-1.7,0-2.17-.33-.23-.83.22-1.23.41-2.14,1-4.25,2.11-6.41,3.09-.29.14-1.1-.86-1.4-.28-.2.37.68.33.64.61-.13,1-1.69.94-2.55,1.33-3.47,1.57-7,3.14-10.44,4.66S94.67,86,91,87.46c-1.37.55-2.61,1.35-4,1.83S84,90.57,82.56,91.22a36.12,36.12,0,0,0-3.35,1.52,1.94,1.94,0,0,0-.65,1.37c-.22,1.88-.3,3.77-.53,5.64-.07.52-.67.94-.72,1.34s.5,1.12.46,1.68c-.24,3.19-.59,6.37-.89,9.55-.14,1.53.68,3.47-.4,4.65-.12.13-.59-.14-.71.12s.13.28.2.28c.42,0,.43,0,.38.57-.39,4.12-.6,8.25-.89,12.38-.21,3.15-.46,6.3-.7,9.45a3.73,3.73,0,0,1-.17,1.48,1.49,1.49,0,0,1-1.13.6c-1.92,0-3.84-.15-5.76-.22-2.6-.08-5.21-.11-7.81-.2-1.51-.06-3.18.29-4-.73S57,124.62,58,116.33c0-.07.31-.09.33-.11.49-.67-.07-1.66,0-2.48.19-1.94.35-3.89.72-5.8a2.19,2.19,0,0,1,.65-1.71c.09-.12,0-.31-.09-.44s-.36-.39-.34-.56c.23-2,.07-5.6.76-6.07.28-.19.33.63.58.63s.31-.5.56-.61c.49-.2,1.16.37,1.51.07s.69-1.3.19-1.59c-.71-.4-.67.77-1.66,1.56-.27.21-.66-.19-1-.34-.12-.07-.33-.26-.27-.41s.38-.06.39-.08c.61-.75,0-1.9,0-2.84a8.4,8.4,0,0,1,.37-3.13c.51-1,0-2,.29-3a21.85,21.85,0,0,0,.45-3.45c.13-1.14.23-2.29.37-3.43a.76.76,0,0,1,.27-.54q3.59-1.92,7.19-3.79c1.41-.75,2.85-1.47,4.26-2.21L87,68.91q6.47-3.41,12.93-6.79c1.64-.85,3.32-1.6,5-2.45s3.22-1.77,4.84-2.64c.62-.34,1.14-.83,2-.68.34.06.76-.68,1.22-.89q5.17-2.34,10.38-4.6c1-.46.21-1.37.52-2,.15-.31-.29-.9.51-.89,0,0,.11-.39,0-.49-.65-.78-.55-.84-.52-2.24.07-3.55-.4-10,0-10.62.26-.36,1.3.42,1.36-.22.12-1.23-1.19-1-1-1.73a6.13,6.13,0,0,0,0-1.42c0-3.66.05-7.32.12-11,0-2.12.13-4.24.22-6.35,0-.46-.16-1.06.18-1.4s1.07.12,1.21-.25c.25-.66-1.59-.56-1.39-1.74,0-.16.54-.35.81-.32s.59,1.05,1.08.65S126,9.8,126,9.7c1.07-1.23,3.35,1.85,4.86,1.12a.33.33,0,0,0,.17-.35c-.08-.23-.45-.3-.63-.32a8.23,8.23,0,0,1-1.74-.39c-.26-.11-.73-.4-.63-.71s.56-.2.85-.21c3.42-.13,6.83-.27,10.25-.33,1.06,0,2.17.44,3.17.24a3.52,3.52,0,0,1,2.41.29c.35.17.83.53.85.82a18.53,18.53,0,0,1-.14,3.16c0,.31-.25.9-.6.85s0-.78-.38-.95-.87.76-1.47.91c-.83.22-1.78-.2-1.79.51s1.5.19,1.57.71c0,.21-.45.21-.44.37s.53.39.57.39c.77.08,1.41-.91,2-.79s.64.45.59.91,0,.81-.36.94-1.14-1-1.49-.43.74.56.59.93-.74.25-1.18.13c-.7-.19-1.77-.17-2-.86-.37-1,0-2.08-.93-2-.47.06-.16.67-.11.84s.45.49.36.76-.57.36-.88.42c-.49.1-.85-.4-1,.07s.42.28.82.6c1,.79,1.19.27,2.32.54s1.48,1.44,2.13.5A9.91,9.91,0,0,0,144.43,17.4ZM185.25,87c.05-.11.43-.11.62,0s.54.55,1,.41a1.25,1.25,0,0,0,.77-.94.37.37,0,0,0-.23-.33c-.83-.3-1.33.19-2.12.41-.44.12-1.24.26-1.44,0s0-.59-.17-.75a.37.37,0,0,0-.49.09c-.24.41.17,1.11.49,1.3.51.31,1,1,1.5.62.08,0,.6-.33.57-.42C185.64,87.07,185.12,87.25,185.25,87Zm-21-31.83c0-.26.62-.13.69-.39a1.53,1.53,0,0,0-1-1.61.21.21,0,0,0-.21.13c-.13.23.24.61.05.76s-1-1-1.34-.42c-.48.78,1.33.94,1.4,1.5,0,.23-.43.42-.32.64s.61-.07.63.15-.27.18-.46.43c-.34.44.18.87.73,1,.89.21.9.21,1.15.41.51.41.33.77.68.35.15-.18.43-.24.61-.4s.12-.3.12-.46a.64.64,0,0,0-.3-.42c-.27-.11-.93,0-1.41-.2A1.51,1.51,0,0,1,164.25,55.13Zm-36,42.62c-.71-.21-1.68-1.14-2.08,0a1.72,1.72,0,0,0,.88,2,.3.3,0,0,0,.34-.16c.1-.37-.8-.69-.52-1.16s1.18-.19,1.39.15-.31.43-.23.65c.3.79,1.33.18,2.26-.12a.57.57,0,0,1,.44.06c1.25.76,3.48,1.73,3.24.28-.18-1-2.34,0-3-.81a.29.29,0,0,1,0-.31c.37-.61,1.55-.33,1.94-.93a.38.38,0,0,0,0-.41c-.4-.53-1.29-.33-1.94-.47-.38-.08-.91,0-1.12-.2s.28-.9,0-1.09c-.64-.4-1.55.49-1.74.84-.42.8,0,1.21.67,1.23s.74-.67,1.18-.53a.37.37,0,0,1,.2.43A1.68,1.68,0,0,1,128.27,97.75Zm-8.2-4.82c0,.76-1.06.64-1.46.88l-.36.18a10.28,10.28,0,0,0-1.07.62c-.06,0,0,.49.1.5a2.61,2.61,0,0,0,1.11,0c1-.24,1.83-.91,3-.09s.93-1.24,2.76-1.57c.56-.1.79.06.91.33s-.1.47.06.49.32-.57.26-.64c-.51-.52-.93-1.65-1.62-1.47s-.36,1-.62,1.13a1.44,1.44,0,0,1-2-.33c-.13-.26.48-.57.38-.89a.22.22,0,0,0-.21-.14c-.41.06-.41.85-.81.93a.16.16,0,0,1-.16-.07c-.17-.37.48-.84.29-1.06-.43-.51-1.68-.41-1.85.18S120.09,92.44,120.07,92.93Zm49.17-34.6c1.51-.44-2-1.57-1.79-3.06.1-.72,1.15,0,1.39-.19s.17-.35,0-.45a2.41,2.41,0,0,0-2.94-.26c-.59.48-1.2,1.2-.57,1.53.4.21.71-.57,1.12-.74s.22.19.2.59c0,.76.77,1.3,1.31,1.68.15.1.43.08.62.21S168.85,58.44,169.24,58.33Zm8.38,6.07c.06-.06,0-.17,0-.24-.33-.94-.32-.92-1.25-.42-.2.11-.69.09-.76,0-.5-.86-1.35-.61-2.08-.74-.15,0-.33.14-.46.1-.45-.15-1.12-1.27-1.6-.65-.72.93,1.18,1.34,2.56,2s2.32,1.06,2.32.57c0-.32-1.14,0-1-.61C175.61,63.49,177.14,64.92,177.62,64.4ZM132.19,18c.11-.88-1.43-.73-2-1.09-.11-.07,0-.43-.16-.48s-.38.39-.6.44-.64,0-.63-.29.56,0,.61-.25c.27-1.18-2.28-1.05-2.63-.17-.2.53.5,1.19,1,1.26a.2.2,0,0,0,.19-.14c.1-.24-.42-.67-.15-.81.78-.42,1,2.09,1.93,1.81.48-.15-.11-1,.24-1.07.57-.08.36,1.05.65,1.18S132.1,18.78,132.19,18Zm47.15,68.29c.46,0,.59.73.82.8.53.16.35-.36.86-.36.29,0,.45.64.73.49.13-.07.05-.34.15-.49s.42-.31.31-.49a.77.77,0,0,0-.8-.47c-.74,0-1.62.32-2.2,0-1-.49-2.6-.41-2.28.48s.62,1,1,.94C178.47,87.21,178.84,86.34,179.34,86.33Zm.85-6.26c-.18.58.15.18,1.1.31.56.08.32,1.07.87,1.21a.36.36,0,0,0,.38-.24c.08-.37-1-.65-.7-1,.92-1.19,1.37.5,1.66.11s-.34-.75-.76-.83c-.75-.13-.64-.41-.79-.9s-1.2-1.08-1.74-.58,1.71.48,1.5,1.2C181.59,79.7,180.33,79.63,180.19,80.07ZM73.09,100.81c.43.12.31.9.65.9s1-.7.81-1.07c-.27-.61-1.41.25-1.66-.15-.13-.21.46-.56.25-.73s-.3.23-.47.28-.37,0-.42-.07c-.29-.45-.3-1.19-.79-1.4a.23.23,0,0,0-.26.08c-.24.49.29.81.59,1.36.2.37.08,1.06.42,1.2S72.83,100.74,73.09,100.81Zm58.15-5.43c0,.13-.19.29-.1.39a1.59,1.59,0,0,0,2.13-.33c.24-.34.16-1.11-.25-1.23-.13,0-.15.25-.28.29-.45.15-1-.5-1.37-.24S131.32,95,131.24,95.38Zm12-3.68a.55.55,0,0,0-.61.08c-.41,1.07-1.25.33-1.87.46-.26.06-.65-.12-.81.1s0,.25.09.32c.64.61,1.73.38,2.6.5.18,0,.5-.26.58-.46S143.52,91.94,143.25,91.7Zm28-32.37c.09-.39-.29-.65-.46-.9s-.38-.27-.41-.24a1.47,1.47,0,0,0-.37.59,2.42,2.42,0,0,0,0,.85c0,.26-.24.94.23,1s.06-.61.22-.67c.48-.19.88.89,1.37.74a.22.22,0,0,0,.12-.23c-.09-.41-1-.32-1-.78C170.87,59.39,171.26,59.34,171.26,59.33Zm8.8,5.52c.09-.54-1.24-.26-1.22-.74s1.1,0,1-.52-.79-.09-1,0a1.89,1.89,0,0,0-.59.63,3.47,3.47,0,0,0-.26.55c-.1.19-.5.38-.35.59A1.57,1.57,0,0,0,180.06,64.85ZM126,89.52c-.29.86,2.21.7,2.57-.06.05-.11-.25-.55-.32-.53C127.46,89.09,126.21,88.78,126,89.52ZM137.34,14c-.24-.26-.86,0-1.34,0s-1,0-1.11.54c-.14.87.46.33,1.25.06S137.77,14.49,137.34,14Zm48.51,66.38c-.29-.16-1.16-.51-1.34,0s.68.66,1.18.86c.21.08.65.32.79.12S186.18,80.59,185.85,80.41Zm-4.33-5.28a.29.29,0,0,0,.1-.33c-.46-.78-2.06-1.21-2.65-.54-.21.24.08.72.29.87A2.1,2.1,0,0,0,181.52,75.13Zm-60.1,23.19a.23.23,0,0,0-.08.23c.11.24.68.35.7.31.4-.63.73-.09,1.11,0,.59.16,1.22-.61.9-.82A2.43,2.43,0,0,0,121.42,98.32Zm-50.6,1.82c0-.08,0-.35-.11-.37-.29-.11-.73.27-.85.47s-.15.5-.48.36-.1-.46-.2-.68-.47-.5-.67-.16c-.43.74.33,1.18,1,1.2S70.73,100.78,70.82,100.14Zm62.6-88.69c.09.5.48.25,1.16.29.5,0,1.29.47,1.51.13s-.14-.3-.92-.45S133.32,10.87,133.42,11.45ZM185.8,75.51a.35.35,0,0,0,0,.44,1.69,1.69,0,0,0,2.15,0,.33.33,0,0,0,0-.44A1.7,1.7,0,0,0,185.8,75.51Zm-2.35-10.33c.11-.12.19-.32.1-.45a1.92,1.92,0,0,0-2.3-.59.26.26,0,0,0-.09.31C181.61,65.14,182.78,66,183.45,65.18ZM79.09,82.43a.17.17,0,0,0-.22,0,1.24,1.24,0,0,0,0,1.49,1.28,1.28,0,0,0,1.49,0,.29.29,0,0,0,.1-.32c-.12-.24-.51-.15-.75-.27a1.14,1.14,0,0,1-.49-.37C79.12,82.84,79.24,82.54,79.09,82.43Z"/></g></svg>